<svg width="16" height="16" viewBox="0 0 16 16" fill="none" xmlns="http://www.w3.org/2000/svg">
<rect x="0.5" y="0.5" width="15" height="15" rx="5.5" stroke="#B8883E"/>
<g clip-path="url(#clip0_109_638)">
<path d="M6.70128 11.4287C6.90211 11.4287 7.06492 11.2659 7.06492 11.0651C7.06492 10.8642 6.90211 10.7014 6.70128 10.7014C6.50045 10.7014 6.33765 10.8642 6.33765 11.0651C6.33765 11.2659 6.50045 11.4287 6.70128 11.4287Z" stroke="#B8883E" stroke-linecap="round" stroke-linejoin="round"/>
<path d="M10.7013 11.4287C10.9021 11.4287 11.0649 11.2659 11.0649 11.0651C11.0649 10.8642 10.9021 10.7014 10.7013 10.7014C10.5005 10.7014 10.3376 10.8642 10.3376 11.0651C10.3376 11.2659 10.5005 11.4287 10.7013 11.4287Z" stroke="#B8883E" stroke-linecap="round" stroke-linejoin="round"/>
<path d="M3.7922 3.79236H5.24674L6.22129 8.66145C6.25454 8.82887 6.34562 8.97925 6.47858 9.08628C6.61154 9.19332 6.77791 9.25017 6.94856 9.2469H10.4831C10.6538 9.25017 10.8201 9.19332 10.9531 9.08628C11.086 8.97925 11.1771 8.82887 11.2104 8.66145L11.7922 5.61054H5.61038" stroke="#B8883E" stroke-linecap="round" stroke-linejoin="round"/>
</g>
<defs>
<clipPath id="clip0_109_638">
<rect width="8.72727" height="8.72727" fill="white" transform="translate(3.42856 3.42871)"/>
</clipPath>
</defs>
</svg>
