<svg width="20" height="11" viewBox="0 0 20 11" fill="none" xmlns="http://www.w3.org/2000/svg">
<g clip-path="url(#clip0_1_438)">
<path d="M15.2316 1.62998C15.4316 1.44223 15.6947 1.33793 15.9684 1.34836C16.2421 1.34836 16.4947 1.45266 16.6947 1.65084C16.8842 1.83858 17 2.09934 17 2.37053C17 2.64171 16.9053 2.90247 16.7158 3.10064L10.7579 9.00416C10.6632 9.09804 10.5474 9.17105 10.4211 9.2232C10.2947 9.27535 10.1579 9.30664 10.0211 9.30664C9.88421 9.30664 9.74737 9.27535 9.61053 9.2232C9.48421 9.17105 9.36842 9.09804 9.27368 9.00416L3.31579 3.10064C3.22105 3.00677 3.13684 2.89204 3.08421 2.76688C3.03158 2.63128 3 2.49569 3 2.3601C3 2.2245 3.02105 2.07848 3.07368 1.95332C3.12632 1.82815 3.21053 1.71342 3.30526 1.60912C3.4 1.51525 3.52632 1.44223 3.65263 1.39008C3.77895 1.3275 3.91579 1.30664 4.06316 1.30664C4.2 1.30664 4.33684 1.33793 4.46316 1.39008C4.58947 1.44223 4.70526 1.52568 4.81053 1.62998L10.0211 6.79295L11 5.81251L15.2316 1.62998Z" fill="#E48212"/>
</g>
<defs>
<clipPath id="clip0_1_438">
<rect width="10" height="18" fill="white" transform="translate(1.39844 11) rotate(-92.9532)"/>
</clipPath>
</defs>
</svg>
