<svg width="17" height="17" viewBox="0 0 17 17" fill="none" xmlns="http://www.w3.org/2000/svg">
<path fill-rule="evenodd" clip-rule="evenodd" d="M16.25 5.36938H0V13.5C0 14.3287 0.329375 15.1237 0.915 15.7094C1.50125 16.2956 2.29625 16.625 3.125 16.625C5.89937 16.625 10.3506 16.625 13.125 16.625C13.9537 16.625 14.7487 16.2956 15.335 15.7094C15.9206 15.1237 16.25 14.3287 16.25 13.5V5.36938ZM3.75 13.4944H5C5.345 13.4944 5.625 13.2144 5.625 12.8694C5.625 12.5244 5.345 12.2444 5 12.2444H3.75C3.405 12.2444 3.125 12.5244 3.125 12.8694C3.125 13.2144 3.405 13.4944 3.75 13.4944ZM7.5 13.4944H8.75C9.095 13.4944 9.375 13.2144 9.375 12.8694C9.375 12.5244 9.095 12.2444 8.75 12.2444H7.5C7.155 12.2444 6.875 12.5244 6.875 12.8694C6.875 13.2144 7.155 13.4944 7.5 13.4944ZM11.25 13.4944H12.5C12.845 13.4944 13.125 13.2144 13.125 12.8694C13.125 12.5244 12.845 12.2444 12.5 12.2444H11.25C10.905 12.2444 10.625 12.5244 10.625 12.8694C10.625 13.2144 10.905 13.4944 11.25 13.4944ZM3.75 10.9944H5C5.345 10.9944 5.625 10.7144 5.625 10.3694C5.625 10.0244 5.345 9.74438 5 9.74438H3.75C3.405 9.74438 3.125 10.0244 3.125 10.3694C3.125 10.7144 3.405 10.9944 3.75 10.9944ZM7.5 10.9944H8.75C9.095 10.9944 9.375 10.7144 9.375 10.3694C9.375 10.0244 9.095 9.74438 8.75 9.74438H7.5C7.155 9.74438 6.875 10.0244 6.875 10.3694C6.875 10.7144 7.155 10.9944 7.5 10.9944ZM11.25 10.9944H12.5C12.845 10.9944 13.125 10.7144 13.125 10.3694C13.125 10.0244 12.845 9.74438 12.5 9.74438H11.25C10.905 9.74438 10.625 10.0244 10.625 10.3694C10.625 10.7144 10.905 10.9944 11.25 10.9944ZM3.75 8.49438H5C5.345 8.49438 5.625 8.21438 5.625 7.86938C5.625 7.52437 5.345 7.24438 5 7.24438H3.75C3.405 7.24438 3.125 7.52437 3.125 7.86938C3.125 8.21438 3.405 8.49438 3.75 8.49438ZM7.5 8.49438H8.75C9.095 8.49438 9.375 8.21438 9.375 7.86938C9.375 7.52437 9.095 7.24438 8.75 7.24438H7.5C7.155 7.24438 6.875 7.52437 6.875 7.86938C6.875 8.21438 7.155 8.49438 7.5 8.49438ZM11.25 8.49438H12.5C12.845 8.49438 13.125 8.21438 13.125 7.86938C13.125 7.52437 12.845 7.24438 12.5 7.24438H11.25C10.905 7.24438 10.625 7.52437 10.625 7.86938C10.625 8.21438 10.905 8.49438 11.25 8.49438ZM4.375 0.375V2.24437C4.375 2.58938 4.095 2.86937 3.75 2.86937C3.405 2.86937 3.125 2.58938 3.125 2.24437V0.375C2.29625 0.375 1.50125 0.704375 0.915 1.29C0.329375 1.87625 0 2.67125 0 3.5V4.11938H16.25V3.5C16.25 2.67125 15.9206 1.87625 15.335 1.29C14.7487 0.704375 13.9537 0.375 13.125 0.375V2.24437C13.125 2.58938 12.845 2.86937 12.5 2.86937C12.155 2.86937 11.875 2.58938 11.875 2.24437V0.375H4.375Z" fill="#857D7D"/>
</svg>
