<svg width="16" height="17" viewBox="0 0 16 17" fill="none" xmlns="http://www.w3.org/2000/svg">
<path d="M14.2857 7.21724H13.4229C13.2961 7.22356 13.1711 7.18046 13.0677 7.09471C12.9642 7.00897 12.8881 6.88547 12.8514 6.74368L11.8914 2.92186C11.714 2.23302 11.3504 1.62962 10.8551 1.2017C10.3597 0.773769 9.75913 0.544254 9.14287 0.547395H4.40574C3.83515 0.54755 3.27767 0.747115 2.80511 1.12038C2.33256 1.49365 1.96657 2.02352 1.75431 2.64173L0.125746 7.39733C0.0414146 7.634 -0.00133542 7.88803 3.17869e-05 8.14435V11.2191C5.21993e-05 12.0006 0.235207 12.7573 0.664449 13.3571C1.09369 13.9568 1.68976 14.3616 2.3486 14.5007C2.46728 15.0792 2.74817 15.5948 3.14664 15.9655C3.54512 16.3363 4.03832 16.541 4.5479 16.5472C5.05747 16.5533 5.55419 16.3605 5.95913 15.9994C6.36407 15.6383 6.654 15.1296 6.78288 14.5541H9.21716C9.345 15.125 9.63141 15.6304 10.0316 15.991C10.4317 16.3517 10.923 16.5474 11.4286 16.5474C11.9342 16.5474 12.4255 16.3517 12.8256 15.991C13.2258 15.6304 13.5122 15.125 13.64 14.5541H14.2857C14.7404 14.5541 15.1764 14.3433 15.4979 13.968C15.8194 13.5928 16 13.0838 16 12.5531V9.21819C16 8.68751 15.8194 8.17856 15.4979 7.80331C15.1764 7.42805 14.7404 7.21724 14.2857 7.21724ZM4.57145 15.2211C4.34542 15.2211 4.12446 15.1428 3.93652 14.9962C3.74857 14.8497 3.60209 14.6413 3.51559 14.3976C3.42909 14.1538 3.40646 13.8856 3.45056 13.6268C3.49465 13.3681 3.6035 13.1304 3.76333 12.9438C3.92316 12.7573 4.1268 12.6302 4.34849 12.5787C4.57018 12.5273 4.79997 12.5537 5.0088 12.6547C5.21763 12.7556 5.39612 12.9266 5.5217 13.146C5.64728 13.3653 5.71431 13.6233 5.71431 13.8871C5.71431 14.2409 5.5939 14.5802 5.37957 14.8303C5.16524 15.0805 4.87456 15.2211 4.57145 15.2211ZM7.42859 7.21724H1.41146L2.81146 3.14196C2.93849 2.76966 3.15837 2.45045 3.44263 2.22569C3.72688 2.00093 4.0624 1.88098 4.40574 1.88136H7.42859V7.21724ZM8.57144 7.21724V1.88136H9.14287C9.51428 1.87762 9.87668 2.01478 10.1755 2.2722C10.4744 2.52962 10.6936 2.89337 10.8 3.30871L11.7772 7.12386C11.7861 7.15614 11.7976 7.18739 11.8114 7.21724H8.57144ZM11.4286 15.2211C11.2025 15.2211 10.9816 15.1428 10.7936 14.9962C10.6057 14.8497 10.4592 14.6413 10.3727 14.3976C10.2862 14.1538 10.2636 13.8856 10.3077 13.6268C10.3518 13.3681 10.4606 13.1304 10.6205 12.9438C10.7803 12.7573 10.9839 12.6302 11.2056 12.5787C11.4273 12.5273 11.6571 12.5537 11.8659 12.6547C12.0748 12.7556 12.2533 12.9266 12.3788 13.146C12.5044 13.3653 12.5714 13.6233 12.5714 13.8871C12.5714 14.2409 12.451 14.5802 12.2367 14.8303C12.0224 15.0805 11.7317 15.2211 11.4286 15.2211ZM14.8571 11.2191H14.2857C14.1342 11.2191 13.9888 11.1489 13.8817 11.0238C13.7745 10.8987 13.7143 10.7291 13.7143 10.5522C13.7143 10.3753 13.7745 10.2056 13.8817 10.0805C13.9888 9.95545 14.1342 9.88518 14.2857 9.88518H14.8571V11.2191Z" fill="#857D7D"/>
</svg>
