<svg width="24" height="24" viewBox="0 0 24 24" fill="none" xmlns="http://www.w3.org/2000/svg">
<path d="M9 22C9.55228 22 10 21.5523 10 21C10 20.4477 9.55228 20 9 20C8.44772 20 8 20.4477 8 21C8 21.5523 8.44772 22 9 22Z" stroke="url(#paint0_linear_60_1449)" stroke-width="2" stroke-linecap="round" stroke-linejoin="round"/>
<path d="M20 22C20.5523 22 21 21.5523 21 21C21 20.4477 20.5523 20 20 20C19.4477 20 19 20.4477 19 21C19 21.5523 19.4477 22 20 22Z" stroke="url(#paint1_linear_60_1449)" stroke-width="2" stroke-linecap="round" stroke-linejoin="round"/>
<path d="M1 1H5L7.68 14.39C7.77144 14.8504 8.02191 15.264 8.38755 15.5583C8.75318 15.8526 9.2107 16.009 9.68 16H19.4C19.8693 16.009 20.3268 15.8526 20.6925 15.5583C21.0581 15.264 21.3086 14.8504 21.4 14.39L23 6H6" stroke="url(#paint2_linear_60_1449)" stroke-width="2" stroke-linecap="round" stroke-linejoin="round"/>
<defs>
<linearGradient id="paint0_linear_60_1449" x1="9.55072" y1="20" x2="9.18713" y2="22.1965" gradientUnits="userSpaceOnUse">
<stop stop-color="#2FDAD0"/>
<stop offset="0.421875" stop-color="#76B3CF"/>
<stop offset="0.702903" stop-color="#8860CB"/>
<stop offset="1" stop-color="#942CC9"/>
</linearGradient>
<linearGradient id="paint1_linear_60_1449" x1="20.5507" y1="20" x2="20.1871" y2="22.1965" gradientUnits="userSpaceOnUse">
<stop stop-color="#2FDAD0"/>
<stop offset="0.421875" stop-color="#76B3CF"/>
<stop offset="0.702903" stop-color="#8860CB"/>
<stop offset="1" stop-color="#942CC9"/>
</linearGradient>
<linearGradient id="paint2_linear_60_1449" x1="18.058" y1="1" x2="16.1716" y2="17.7128" gradientUnits="userSpaceOnUse">
<stop stop-color="#2FDAD0"/>
<stop offset="0.421875" stop-color="#76B3CF"/>
<stop offset="0.702903" stop-color="#8860CB"/>
<stop offset="1" stop-color="#942CC9"/>
</linearGradient>
</defs>
</svg>
  