<svg width="19" height="18" viewBox="0 0 19 18" fill="none" xmlns="http://www.w3.org/2000/svg">
<path d="M5.92578 9.00003H5.93467M9.92578 9.00003H9.93467M13.9258 9.00003H13.9347M9.92578 17C14.3441 17 17.9258 13.4183 17.9258 9.00003C17.9258 4.58175 14.3441 1.00003 9.92578 1.00003C5.5075 1.00003 1.92578 4.58175 1.92578 9.00003C1.92578 10.0642 2.13355 11.0798 2.51073 12.0085C2.58291 12.1862 2.61901 12.2751 2.63511 12.3469C2.65086 12.4172 2.65662 12.4692 2.65663 12.5412C2.65664 12.6149 2.64328 12.6951 2.61654 12.8555L2.08945 16.018C2.03425 16.3492 2.00665 16.5148 2.05801 16.6345C2.10296 16.7393 2.18648 16.8228 2.29128 16.8678C2.41102 16.9192 2.57661 16.8916 2.90779 16.8364L6.07036 16.3093C6.23075 16.2825 6.31094 16.2692 6.38457 16.2692C6.45658 16.2692 6.50859 16.275 6.57887 16.2907C6.65071 16.3068 6.73958 16.3429 6.91733 16.4151C7.84605 16.7923 8.86165 17 9.92578 17ZM6.37023 9.00003C6.37023 9.24549 6.17124 9.44448 5.92578 9.44448C5.68032 9.44448 5.48134 9.24549 5.48134 9.00003C5.48134 8.75457 5.68032 8.55559 5.92578 8.55559C6.17124 8.55559 6.37023 8.75457 6.37023 9.00003ZM10.3702 9.00003C10.3702 9.24549 10.1712 9.44448 9.92578 9.44448C9.68032 9.44448 9.48134 9.24549 9.48134 9.00003C9.48134 8.75457 9.68032 8.55559 9.92578 8.55559C10.1712 8.55559 10.3702 8.75457 10.3702 9.00003ZM14.3702 9.00003C14.3702 9.24549 14.1712 9.44448 13.9258 9.44448C13.6803 9.44448 13.4813 9.24549 13.4813 9.00003C13.4813 8.75457 13.6803 8.55559 13.9258 8.55559C14.1712 8.55559 14.3702 8.75457 14.3702 9.00003Z" stroke="#77B3CF" stroke-width="2" stroke-linecap="round" stroke-linejoin="round"/>
</svg>
