<svg width="16" height="22" viewBox="0 0 16 22" fill="none" xmlns="http://www.w3.org/2000/svg">
<path d="M7.69775 16.6196H7.70775M3.89775 21.1196H11.4978C12.6179 21.1196 13.1779 21.1196 13.6057 20.9016C13.9821 20.7098 14.288 20.4039 14.4798 20.0275C14.6978 19.5997 14.6978 19.0397 14.6978 17.9196V4.31957C14.6978 3.19946 14.6978 2.63941 14.4798 2.21159C14.288 1.83526 13.9821 1.5293 13.6057 1.33755C13.1779 1.11957 12.6179 1.11957 11.4978 1.11957H3.89775C2.77765 1.11957 2.2176 1.11957 1.78977 1.33755C1.41345 1.5293 1.10749 1.83526 0.915741 2.21159C0.697754 2.63941 0.697754 3.19946 0.697754 4.31957V17.9196C0.697754 19.0397 0.697754 19.5997 0.915741 20.0275C1.10749 20.4039 1.41345 20.7098 1.78977 20.9016C2.2176 21.1196 2.77765 21.1196 3.89775 21.1196ZM8.19775 16.6196C8.19775 16.8957 7.9739 17.1196 7.69775 17.1196C7.42161 17.1196 7.19775 16.8957 7.19775 16.6196C7.19775 16.3434 7.42161 16.1196 7.69775 16.1196C7.9739 16.1196 8.19775 16.3434 8.19775 16.6196Z" stroke="white" stroke-linecap="round" stroke-linejoin="round"/>
</svg>
