<svg width="16" height="17" viewBox="0 0 16 17" fill="none" xmlns="http://www.w3.org/2000/svg">
<path d="M2 4.5H3.33333H14" stroke="#ED4C5C" stroke-width="1.5" stroke-linecap="round" stroke-linejoin="round"/>
<path d="M12.6663 4.5V13.8333C12.6663 14.187 12.5259 14.5261 12.2758 14.7761C12.0258 15.0262 11.6866 15.1667 11.333 15.1667H4.66634C4.31272 15.1667 3.97358 15.0262 3.72353 14.7761C3.47348 14.5261 3.33301 14.187 3.33301 13.8333V4.5M5.33301 4.5V3.16667C5.33301 2.81305 5.47348 2.47391 5.72353 2.22386C5.97358 1.97381 6.31272 1.83334 6.66634 1.83334H9.33301C9.68663 1.83334 10.0258 1.97381 10.2758 2.22386C10.5259 2.47391 10.6663 2.81305 10.6663 3.16667V4.5" stroke="#ED4C5C" stroke-width="1.5" stroke-linecap="round" stroke-linejoin="round"/>
</svg>
