<svg width="36" height="36" viewBox="0 0 36 36" fill="none" xmlns="http://www.w3.org/2000/svg">
<path d="M18 23.3625C17.8 23.3625 17.6125 23.331 17.4375 23.268C17.2625 23.206 17.1 23.1 16.95 22.95L11.55 17.55C11.275 17.275 11.1375 16.925 11.1375 16.5C11.1375 16.075 11.275 15.725 11.55 15.45C11.825 15.175 12.181 15.031 12.618 15.018C13.056 15.006 13.4125 15.1375 13.6875 15.4125L16.5 18.225V7.5C16.5 7.075 16.644 6.7185 16.932 6.4305C17.219 6.1435 17.575 6 18 6C18.425 6 18.7815 6.1435 19.0695 6.4305C19.3565 6.7185 19.5 7.075 19.5 7.5V18.225L22.3125 15.4125C22.5875 15.1375 22.944 15.006 23.382 15.018C23.819 15.031 24.175 15.175 24.45 15.45C24.725 15.725 24.8625 16.075 24.8625 16.5C24.8625 16.925 24.725 17.275 24.45 17.55L19.05 22.95C18.9 23.1 18.7375 23.206 18.5625 23.268C18.3875 23.331 18.2 23.3625 18 23.3625ZM9 30C8.175 30 7.469 29.7065 6.882 29.1195C6.294 28.5315 6 27.825 6 27V24C6 23.575 6.1435 23.2185 6.4305 22.9305C6.7185 22.6435 7.075 22.5 7.5 22.5C7.925 22.5 8.2815 22.6435 8.5695 22.9305C8.8565 23.2185 9 23.575 9 24V27H27V24C27 23.575 27.144 23.2185 27.432 22.9305C27.719 22.6435 28.075 22.5 28.5 22.5C28.925 22.5 29.281 22.6435 29.568 22.9305C29.856 23.2185 30 23.575 30 24V27C30 27.825 29.7065 28.5315 29.1195 29.1195C28.5315 29.7065 27.825 30 27 30H9Z" fill="url(#paint0_linear_33448_2404)"/>
<defs>
<linearGradient id="paint0_linear_33448_2404" x1="6" y1="6" x2="47" y2="58" gradientUnits="userSpaceOnUse">
<stop stop-color="#2FDAD0"/>
<stop offset="1" stop-color="#8C3ACA"/>
</linearGradient>
</defs>
</svg>
