<svg width="16" height="17" viewBox="0 0 16 17" fill="none" xmlns="http://www.w3.org/2000/svg">
<path d="M7.3335 3.00261H2.66683C2.31321 3.00261 1.97407 3.14308 1.72402 3.39313C1.47397 3.64318 1.3335 3.98232 1.3335 4.33594V13.6693C1.3335 14.0229 1.47397 14.362 1.72402 14.6121C1.97407 14.8621 2.31321 15.0026 2.66683 15.0026H12.0002C12.3538 15.0026 12.6929 14.8621 12.943 14.6121C13.193 14.362 13.3335 14.0229 13.3335 13.6693V9.00261" stroke="#77B3CF" stroke-linecap="round" stroke-linejoin="round"/>
<path d="M12.3335 2.0026C12.5987 1.73739 12.9584 1.58839 13.3335 1.58839C13.7086 1.58839 14.0683 1.73739 14.3335 2.0026C14.5987 2.26782 14.7477 2.62753 14.7477 3.0026C14.7477 3.37768 14.5987 3.73739 14.3335 4.0026L8.00016 10.3359L5.3335 11.0026L6.00016 8.33594L12.3335 2.0026Z" stroke="#77B3CF" stroke-linecap="round" stroke-linejoin="round"/>
</svg>
