<svg width="21" height="21" viewBox="0 0 21 21" fill="none" xmlns="http://www.w3.org/2000/svg">
<g clip-path="url(#clip0_54_59)">
<path d="M11 0.875C7.14125 0.875 4 4.01625 4 7.875C4 12.7487 10.09 19.5475 10.3525 19.8362L11 20.5537L11.6475 19.8362C11.91 19.5475 18 12.7487 18 7.875C18 4.01625 14.8587 0.875 11 0.875ZM11 17.9112C9.0925 15.6275 5.75 10.9725 5.75 7.875C5.75 4.97875 8.10375 2.625 11 2.625C13.8962 2.625 16.25 4.97875 16.25 7.875C16.25 11.2262 12.5312 16.065 11 17.9112ZM7.94625 9.66875V10.9287H9.20625L12.6362 7.49L11.385 6.23875L7.94625 9.66875ZM13.0912 4.99625C12.96 4.865 12.75 4.865 12.6187 4.99625L12.0062 5.60875L13.2662 6.86875L13.8787 6.25625C14.01 6.125 14.01 5.915 13.8787 5.78375L13.0912 4.99625Z" fill="black"/>
</g>
<defs>
<clipPath id="clip0_54_59">
<rect width="21" height="21" fill="white"/>
</clipPath>
</defs>
</svg>
