<svg width="22" height="22" viewBox="0 0 22 22" fill="none" xmlns="http://www.w3.org/2000/svg">
<path d="M7.16221 7.5625L3.62669 4.02698M3.62669 18.1691L7.16223 14.6336M14.2333 14.6335L17.7688 18.1691M17.7688 4.02693L14.2333 7.56248M20.6978 11.098C20.6978 16.6209 16.2206 21.098 10.6978 21.098C5.17491 21.098 0.697754 16.6209 0.697754 11.098C0.697754 5.57517 5.17491 1.09802 10.6978 1.09802C16.2206 1.09802 20.6978 5.57517 20.6978 11.098ZM15.6978 11.098C15.6978 13.8594 13.4592 16.098 10.6978 16.098C7.93633 16.098 5.69775 13.8594 5.69775 11.098C5.69775 8.3366 7.93633 6.09802 10.6978 6.09802C13.4592 6.09802 15.6978 8.3366 15.6978 11.098Z" stroke="white" stroke-linecap="round" stroke-linejoin="round"/>
</svg>
