<svg width="328" height="328" viewBox="0 0 328 328" fill="none" xmlns="http://www.w3.org/2000/svg">
<path d="M164 313.522C249.354 313.522 318.547 273.573 318.547 224.293C318.547 175.013 249.354 135.064 164 135.064C78.6461 135.064 9.453 175.013 9.453 224.293C9.453 273.573 78.6461 313.522 164 313.522Z" fill="#F0F0F0"/>
<path d="M132.02 291.907C161.453 291.907 185.313 278.132 185.313 261.14C185.313 244.149 161.453 230.374 132.02 230.374C102.587 230.374 78.7266 244.149 78.7266 261.14C78.7266 278.132 102.587 291.907 132.02 291.907Z" fill="#E0E0E0"/>
<path d="M283.576 222.646L277.324 219.038C277.324 219.038 275.796 205.656 276.812 195.291C278.242 180.728 287.649 163.2 298.867 167.319C310.085 171.439 293.724 186.265 290.083 198.617C286.442 210.97 283.576 222.646 283.576 222.646Z" fill="#E48212"/>
<path opacity="0.15" d="M283.576 222.646L277.324 219.038C277.324 219.038 275.796 205.656 276.812 195.291C278.242 180.728 287.649 163.2 298.867 167.319C310.085 171.439 293.724 186.265 290.083 198.617C286.442 210.97 283.576 222.646 283.576 222.646Z" fill="black"/>
<path d="M280.289 221.131C280.389 221.126 280.483 221.082 280.55 221.008C280.618 220.935 280.654 220.837 280.65 220.737C279.554 188.377 295.666 172.095 295.823 171.938C295.895 171.866 295.935 171.77 295.935 171.669C295.935 171.568 295.895 171.471 295.823 171.4C295.788 171.365 295.747 171.337 295.701 171.318C295.656 171.299 295.607 171.289 295.558 171.289C295.508 171.289 295.459 171.299 295.414 171.318C295.368 171.337 295.327 171.365 295.292 171.4C295.121 171.557 278.78 188.075 279.889 220.764C279.891 220.814 279.902 220.864 279.923 220.91C279.945 220.956 279.975 220.997 280.012 221.031C280.049 221.066 280.093 221.092 280.141 221.109C280.188 221.126 280.239 221.134 280.289 221.131Z" fill="white"/>
<path d="M287.505 224.897L283.057 222.332C283.057 222.332 282.297 213.148 286.803 201.996C290.739 192.287 300.448 184.225 305.342 185.917C310.236 187.609 310.111 191.08 307.723 194.721C305.335 198.361 290.831 207.027 287.505 224.897Z" fill="#E48212"/>
<path d="M285.157 223.926C285.257 223.924 285.353 223.883 285.424 223.812C285.495 223.741 285.535 223.646 285.537 223.545C285.445 203.078 304.66 189.249 304.856 189.112C304.897 189.084 304.932 189.047 304.959 189.006C304.985 188.964 305.003 188.917 305.011 188.868C305.019 188.818 305.017 188.768 305.005 188.72C304.993 188.672 304.972 188.627 304.942 188.587C304.884 188.506 304.796 188.451 304.698 188.434C304.6 188.417 304.499 188.439 304.417 188.495C304.22 188.633 284.691 202.697 284.776 223.545C284.776 223.646 284.816 223.743 284.888 223.814C284.959 223.886 285.056 223.926 285.157 223.926Z" fill="white"/>
<path d="M52.257 214.61L58.0298 210.714C58.0298 210.714 60.5685 195.626 58.2069 182.316C54.8876 163.646 41.984 157.44 37.392 159.408C32.8 161.376 31.816 166.932 40.39 177.586C45.474 183.851 52.0799 197.226 52.257 214.61Z" fill="#E48212"/>
<g opacity="0.15">
<path d="M52.257 214.61L58.0298 210.714C58.0298 210.714 60.5685 195.626 58.2069 182.316C54.8876 163.646 41.984 157.44 37.392 159.408C32.8 161.376 31.816 166.932 40.39 177.586C45.474 183.851 52.0799 197.226 52.257 214.61Z" fill="black"/>
</g>
<path d="M54.2381 207.132H54.1791C54.1201 207.128 54.0626 207.112 54.0103 207.085C53.958 207.057 53.912 207.019 53.8755 206.973C53.839 206.926 53.8127 206.873 53.7983 206.815C53.7839 206.758 53.7818 206.698 53.792 206.64C55.8781 189.066 48.4588 169.989 40.3834 162.399C40.3057 162.321 40.2621 162.215 40.2621 162.104C40.2621 161.994 40.3057 161.888 40.3834 161.809C40.4219 161.77 40.4678 161.739 40.5185 161.717C40.5692 161.696 40.6236 161.685 40.6786 161.685C40.7336 161.685 40.788 161.696 40.8387 161.717C40.8894 161.739 40.9353 161.77 40.9738 161.809C49.2 169.537 56.7572 188.928 54.6448 206.758C54.6325 206.859 54.5847 206.951 54.5102 207.02C54.4357 207.088 54.3393 207.128 54.2381 207.132Z" fill="white"/>
<path d="M37.1427 224.805C36.2243 225.356 33.5478 223.368 32.8066 222.889C31.5361 222.06 30.5013 220.916 29.8021 219.57C29.0177 218.043 28.7266 216.31 28.969 214.611C29.1033 213.724 29.2984 212.847 29.5528 211.986C29.7824 211.127 30.012 210.268 30.2088 209.402C30.4997 208.56 30.6115 207.666 30.5368 206.778C30.281 205.026 28.7 203.826 27.2568 202.796C25.6693 201.648 23.9768 200.133 23.9768 198.02C24.0577 196.361 24.6929 194.776 25.7808 193.52C26.7648 192.208 27.9456 191.067 28.8312 189.696C29.5237 188.746 29.8772 187.591 29.8349 186.416C29.7208 185.691 29.462 184.997 29.0739 184.375C28.2998 183.011 27.2962 181.751 26.7517 180.302C26.2072 178.852 26.2466 176.989 27.4077 175.906C28.3326 175.021 29.743 174.877 31.0222 174.936C32.2276 175.056 33.3921 175.439 34.4334 176.057C37.825 177.861 39.8192 181.797 43.4075 183.168C44.7917 183.693 46.3005 183.785 47.7371 184.139C49.1738 184.494 50.6563 185.195 51.3451 186.501C52.703 189.092 50.3349 192.359 51.3058 195.108C52.1717 197.548 54.5858 198.44 55.9502 200.625C56.504 201.595 56.7338 202.716 56.6062 203.826C56.5293 205.699 56.109 207.543 55.3664 209.264C54.5123 211.05 53.5483 212.78 52.48 214.446C52.48 214.446 37.2805 224.719 37.1427 224.805Z" fill="#E48212"/>
<path d="M46.0119 219.366C45.9568 219.366 45.9023 219.354 45.8517 219.332C45.8011 219.31 45.7553 219.278 45.7169 219.239C45.6786 219.199 45.6483 219.152 45.628 219.101C45.6077 219.05 45.5977 218.995 45.5986 218.94C45.966 202.33 37.7922 184.172 32.0063 178.924C31.9241 178.85 31.8745 178.746 31.8683 178.636C31.8622 178.525 31.9 178.416 31.9735 178.334C32.012 178.294 32.0579 178.263 32.1086 178.242C32.1593 178.221 32.2137 178.21 32.2687 178.21C32.3237 178.21 32.3781 178.221 32.4288 178.242C32.4795 178.263 32.5254 178.294 32.5639 178.334C38.4679 183.647 46.8057 202.12 46.4317 218.96C46.4309 219.014 46.4193 219.068 46.3978 219.117C46.3762 219.167 46.3451 219.212 46.3061 219.25C46.2671 219.288 46.221 219.318 46.1706 219.338C46.1201 219.357 46.0662 219.367 46.0119 219.366Z" fill="white"/>
<path d="M42.9484 199.129C42.9096 199.139 42.8691 199.139 42.8303 199.129C37.4642 197.581 30.8124 197.423 30.7468 197.417C30.6919 197.416 30.6378 197.404 30.5876 197.382C30.5373 197.36 30.4919 197.328 30.4541 197.289C30.4162 197.249 30.3866 197.202 30.3671 197.151C30.3475 197.1 30.3383 197.045 30.3401 196.99C30.339 196.935 30.3495 196.88 30.3708 196.829C30.3922 196.778 30.4239 196.732 30.4639 196.693C30.504 196.655 30.5516 196.626 30.6037 196.607C30.6558 196.588 30.7112 196.58 30.7665 196.584C30.8321 196.584 37.5889 196.748 43.0599 198.322C43.1656 198.354 43.2545 198.426 43.3073 198.523C43.3601 198.62 43.3726 198.734 43.342 198.84C43.3164 198.924 43.2643 198.998 43.1933 199.05C43.1223 199.102 43.0364 199.13 42.9484 199.129Z" fill="white"/>
<path d="M197.561 203.189L195.075 201.753C194.661 201.484 194.316 201.121 194.068 200.693C193.821 200.266 193.678 199.786 193.651 199.293V95.9596C193.678 95.4673 193.821 94.9882 194.067 94.5609C194.313 94.1336 194.656 93.7701 195.068 93.4996L264.178 53.6017C264.618 53.3787 265.105 53.2625 265.598 53.2625C266.092 53.2625 266.578 53.3787 267.018 53.6017L269.505 55.0384C269.919 55.3073 270.264 55.6703 270.511 56.0978C270.758 56.5253 270.901 57.0052 270.928 57.4984V160.831C270.901 161.324 270.759 161.803 270.513 162.23C270.266 162.658 269.923 163.021 269.511 163.291L200.401 203.196C199.961 203.42 199.474 203.535 198.98 203.534C198.487 203.533 198 203.415 197.561 203.189Z" fill="#455A64"/>
<path d="M270.928 57.2688C270.83 56.534 270.233 56.2651 269.518 56.6784L200.401 96.5828C199.984 96.8451 199.638 97.2083 199.398 97.639L194.065 94.5624C194.303 94.1284 194.649 93.7626 195.068 93.4996L264.178 53.6017C264.618 53.3787 265.105 53.2625 265.598 53.2625C266.092 53.2625 266.578 53.3787 267.018 53.6017L269.505 55.0384C269.889 55.2856 270.215 55.6129 270.46 55.9979C270.706 56.3828 270.866 56.8164 270.928 57.2688Z" fill="#455A64"/>
<path d="M200.159 203.308C199.739 203.478 199.287 203.556 198.835 203.536C198.382 203.517 197.939 203.401 197.535 203.196L195.042 201.753C194.63 201.482 194.287 201.119 194.041 200.692C193.794 200.264 193.652 199.785 193.625 199.293V95.9597C193.642 95.4664 193.784 94.9855 194.038 94.5624L199.372 97.639C199.112 98.0627 198.968 98.5464 198.952 99.0429V202.376C198.978 203.189 199.49 203.563 200.159 203.308Z" fill="#263238"/>
<path d="M198.978 99.056V202.376C198.978 203.281 199.634 203.649 200.401 203.196L269.511 163.292C269.923 163.021 270.266 162.658 270.513 162.23C270.759 161.803 270.901 161.324 270.928 160.832V57.4984C270.928 56.5931 270.272 56.2258 269.511 56.6784L200.401 96.5829C199.985 96.8531 199.64 97.2182 199.392 97.6481C199.145 98.0781 199.003 98.5606 198.978 99.056Z" fill="#37474F"/>
<path d="M182.84 138.416C181.948 137.885 177.809 135.53 177.592 135.405C177.424 135.304 177.28 135.167 177.171 135.003C177.063 134.84 176.992 134.654 176.965 134.459C176.938 134.265 176.955 134.066 177.015 133.879C177.074 133.692 177.175 133.521 177.31 133.378L193.651 115.85L198.978 118.907L182.644 136.448C182.515 136.585 182.418 136.747 182.357 136.925C182.297 137.102 182.276 137.29 182.294 137.477C182.313 137.663 182.371 137.844 182.466 138.006C182.56 138.168 182.688 138.308 182.84 138.416Z" fill="#455A64"/>
<path d="M198.978 118.926L182.644 136.448C182.462 136.642 182.344 136.886 182.304 137.148C182.264 137.411 182.305 137.679 182.421 137.918C182.536 138.156 182.722 138.354 182.953 138.486C183.183 138.617 183.448 138.675 183.713 138.652L198.978 137.393V118.926Z" fill="#37474F"/>
<path d="M234.953 87.3792C243.009 82.7281 249.536 86.5001 249.536 95.8022C249.536 105.104 243.009 116.407 234.953 121.058C226.897 125.709 220.37 121.937 220.37 112.642C220.37 103.346 226.897 92.0302 234.953 87.3792Z" fill="#E48212"/>
<path d="M234.848 94.7001C237.472 93.1913 239.578 94.4114 239.578 97.429C239.488 99.0694 239.014 100.666 238.192 102.088C237.37 103.51 236.224 104.719 234.848 105.616C232.224 107.125 230.112 105.905 230.112 102.887C230.202 101.246 230.678 99.6495 231.501 98.227C232.324 96.8045 233.47 95.5962 234.848 94.7001Z" fill="white"/>
<path d="M244.176 110.785C244.176 105.832 240.693 103.819 236.403 106.298L233.72 107.846C229.429 110.326 225.946 116.374 225.946 121.314V122.672C226.756 122.931 227.602 123.061 228.452 123.059C230.753 122.981 232.995 122.302 234.953 121.091C238.682 118.794 241.837 115.675 244.176 111.973V110.785Z" fill="white"/>
<path d="M225.716 167.103L244.189 156.436C244.977 155.984 245.613 156.351 245.613 157.256V163.206C245.586 163.699 245.443 164.179 245.196 164.607C244.949 165.034 244.604 165.397 244.189 165.666L225.716 176.333C224.929 176.785 224.293 176.418 224.293 175.513V169.563C224.32 169.07 224.463 168.59 224.71 168.162C224.957 167.735 225.302 167.372 225.716 167.103Z" fill="#E48212"/>
<path d="M216.67 153.812L253.216 132.702C254.154 132.158 254.922 132.597 254.922 133.686V135.897C254.89 136.488 254.718 137.064 254.422 137.577C254.126 138.09 253.712 138.526 253.216 138.849L216.651 159.959C215.712 160.504 214.952 160.064 214.952 158.975V156.784C214.981 156.188 215.153 155.607 215.452 155.09C215.751 154.574 216.168 154.136 216.67 153.812Z" fill="#FAFAFA"/>
<path d="M220.947 138.534C221.446 138.245 221.833 138.199 222.109 138.403C222.384 138.606 222.522 139.059 222.522 139.754C222.536 140.389 222.394 141.017 222.109 141.584C221.851 142.097 221.447 142.522 220.947 142.805L219.963 143.375V145.494C219.961 145.567 219.944 145.639 219.911 145.704C219.888 145.763 219.846 145.814 219.793 145.848L219.294 146.137C219.277 146.15 219.257 146.157 219.235 146.157C219.214 146.157 219.193 146.15 219.176 146.137C219.141 146.093 219.124 146.036 219.13 145.98V139.846C219.13 139.774 219.145 139.702 219.176 139.636C219.201 139.578 219.242 139.528 219.294 139.492L220.947 138.534ZM219.963 142.188L220.915 141.637C221.144 141.507 221.338 141.322 221.479 141.099C221.628 140.836 221.701 140.536 221.689 140.233C221.689 139.879 221.617 139.675 221.479 139.616C221.381 139.593 221.28 139.592 221.182 139.613C221.084 139.635 220.993 139.679 220.915 139.741L219.963 140.292V142.188Z" fill="#FAFAFA"/>
<path d="M225.27 136.035C225.336 135.995 225.388 135.995 225.421 136.035C225.463 136.093 225.492 136.161 225.507 136.231L227.022 141.361C227.022 141.361 227.022 141.401 227.022 141.42C227.021 141.494 227.003 141.565 226.969 141.63C226.946 141.69 226.905 141.74 226.851 141.775L226.405 142.03C226.327 142.076 226.268 142.083 226.235 142.03C226.203 141.998 226.18 141.957 226.169 141.912L225.9 141.014L223.932 142.142L223.67 143.349C223.651 143.414 223.627 143.478 223.598 143.539C223.565 143.619 223.504 143.685 223.427 143.723L222.981 143.979C222.964 143.993 222.944 144 222.922 144C222.9 144 222.879 143.993 222.863 143.979C222.829 143.936 222.812 143.882 222.817 143.828C222.813 143.804 222.813 143.78 222.817 143.756L224.326 136.881C224.344 136.78 224.373 136.681 224.411 136.586C224.443 136.517 224.496 136.459 224.562 136.422L225.27 136.035ZM225.612 140.01L224.956 137.694L224.3 140.791L225.612 140.01Z" fill="#FAFAFA"/>
<path d="M229.318 133.601C229.538 133.462 229.787 133.379 230.046 133.358C230.229 133.342 230.413 133.383 230.571 133.476C230.715 133.57 230.827 133.705 230.892 133.863C230.964 134.025 231.004 134.199 231.01 134.375C231.015 134.448 230.999 134.521 230.965 134.585C230.941 134.644 230.9 134.695 230.846 134.729L230.413 134.979C230.341 135.018 230.289 135.025 230.256 134.979C230.215 134.952 230.182 134.916 230.158 134.874C230.131 134.815 230.093 134.762 230.046 134.718C229.999 134.674 229.943 134.64 229.882 134.618C229.682 134.589 229.479 134.641 229.318 134.762C229.212 134.831 229.111 134.907 229.016 134.992C228.919 135.081 228.833 135.183 228.76 135.293C228.691 135.4 228.633 135.515 228.59 135.635C228.551 135.749 228.531 135.868 228.531 135.989C228.523 136.099 228.543 136.21 228.59 136.31C228.61 136.345 228.638 136.375 228.673 136.397C228.707 136.419 228.746 136.432 228.787 136.435C228.908 136.456 229.032 136.456 229.154 136.435L229.725 136.31C229.937 136.247 230.159 136.221 230.381 136.232C230.539 136.231 230.693 136.282 230.82 136.376C230.94 136.477 231.027 136.612 231.069 136.763C231.134 136.975 231.163 137.197 231.155 137.419C231.154 137.712 231.112 138.004 231.03 138.285C230.95 138.574 230.833 138.852 230.682 139.111C230.524 139.377 230.334 139.624 230.118 139.846C229.898 140.075 229.646 140.271 229.37 140.43C229.168 140.553 228.946 140.64 228.714 140.686C228.526 140.722 228.331 140.706 228.15 140.64C227.986 140.564 227.851 140.437 227.763 140.279C227.656 140.077 227.598 139.852 227.593 139.623C227.592 139.548 227.608 139.475 227.639 139.407C227.668 139.351 227.711 139.303 227.763 139.269L228.196 139.02C228.262 138.98 228.314 138.967 228.354 138.987C228.393 139.006 228.419 139.039 228.445 139.098C228.473 139.166 228.508 139.23 228.55 139.289C228.591 139.346 228.648 139.389 228.714 139.413C228.801 139.433 228.89 139.433 228.977 139.413C229.116 139.38 229.249 139.325 229.37 139.249C229.498 139.177 229.618 139.093 229.731 139C229.952 138.825 230.127 138.6 230.243 138.344C230.295 138.212 230.322 138.072 230.322 137.931C230.328 137.879 230.323 137.827 230.309 137.777C230.294 137.728 230.269 137.682 230.236 137.642C230.201 137.611 230.159 137.587 230.114 137.574C230.068 137.56 230.021 137.557 229.974 137.563C229.825 137.569 229.677 137.594 229.534 137.635C229.364 137.675 229.167 137.721 228.937 137.76C228.762 137.804 228.58 137.817 228.4 137.799C228.258 137.79 228.123 137.732 228.019 137.635C227.906 137.524 227.826 137.383 227.789 137.229C227.737 137.001 227.712 136.767 227.717 136.533C227.717 136.244 227.759 135.957 227.842 135.681C227.92 135.396 228.035 135.122 228.183 134.867C228.325 134.613 228.497 134.378 228.695 134.165C228.875 133.949 229.085 133.759 229.318 133.601Z" fill="#FAFAFA"/>
<path d="M233.628 131.121C233.846 130.978 234.096 130.893 234.356 130.872C234.539 130.856 234.722 130.898 234.881 130.99C235.021 131.086 235.13 131.22 235.196 131.377C235.267 131.539 235.307 131.712 235.314 131.889C235.321 131.962 235.305 132.036 235.268 132.099C235.245 132.158 235.203 132.209 235.15 132.243L234.717 132.492C234.651 132.532 234.599 132.545 234.559 132.492C234.518 132.466 234.485 132.427 234.468 132.381C234.408 132.266 234.307 132.177 234.185 132.132C234.088 132.117 233.988 132.123 233.892 132.147C233.796 132.172 233.706 132.216 233.628 132.276C233.518 132.343 233.415 132.42 233.32 132.505C233.224 132.595 233.14 132.697 233.07 132.807C232.998 132.912 232.941 133.027 232.9 133.148C232.859 133.262 232.837 133.382 232.834 133.503C232.826 133.613 232.847 133.724 232.893 133.824C232.913 133.859 232.942 133.889 232.976 133.911C233.01 133.932 233.049 133.945 233.09 133.949C233.211 133.97 233.336 133.97 233.457 133.949L234.028 133.824C234.241 133.765 234.463 133.738 234.684 133.745C234.842 133.744 234.997 133.795 235.124 133.89C235.243 133.992 235.332 134.126 235.379 134.277C235.437 134.49 235.464 134.711 235.458 134.933C235.458 135.226 235.416 135.517 235.333 135.799C235.253 136.088 235.137 136.366 234.986 136.625C234.828 136.894 234.638 137.142 234.422 137.366C234.2 137.59 233.951 137.784 233.68 137.944C233.478 138.066 233.256 138.153 233.024 138.2C232.838 138.235 232.645 138.219 232.467 138.154C232.299 138.08 232.161 137.953 232.073 137.793C231.965 137.591 231.909 137.366 231.909 137.137C231.901 137.064 231.918 136.99 231.955 136.927C231.978 136.868 232.019 136.817 232.073 136.783L232.506 136.533C232.572 136.494 232.631 136.481 232.664 136.5C232.686 136.511 232.706 136.526 232.722 136.546C232.738 136.565 232.75 136.588 232.755 136.612C232.785 136.678 232.82 136.742 232.86 136.802C232.903 136.86 232.963 136.903 233.031 136.927C233.117 136.947 233.207 136.947 233.293 136.927C233.433 136.894 233.566 136.839 233.687 136.763C233.811 136.689 233.929 136.605 234.041 136.514C234.156 136.424 234.258 136.318 234.343 136.199C234.428 136.085 234.498 135.962 234.553 135.831C234.605 135.7 234.632 135.56 234.632 135.418C234.638 135.367 234.633 135.315 234.619 135.265C234.604 135.215 234.579 135.169 234.546 135.129C234.511 135.098 234.469 135.075 234.424 135.061C234.378 135.048 234.331 135.044 234.284 135.051C234.137 135.06 233.992 135.084 233.851 135.123C233.68 135.162 233.477 135.208 233.254 135.248C233.076 135.291 232.892 135.305 232.709 135.287C232.567 135.279 232.432 135.221 232.329 135.123C232.218 135.011 232.14 134.87 232.106 134.716C232.048 134.491 232.021 134.259 232.027 134.027C232.03 133.737 232.071 133.447 232.152 133.168C232.233 132.884 232.347 132.611 232.493 132.355C232.635 132.099 232.809 131.863 233.011 131.653C233.188 131.445 233.396 131.265 233.628 131.121Z" fill="#FAFAFA"/>
<path d="M238.41 131.941L237.879 135.083C237.863 135.178 237.837 135.27 237.8 135.359C237.775 135.43 237.726 135.49 237.662 135.53L237.164 135.818C237.098 135.858 237.052 135.858 237.019 135.818C236.975 135.764 236.95 135.698 236.947 135.628L236.16 130.085C236.16 130.085 236.16 130.032 236.16 130.013C236.162 129.94 236.18 129.868 236.213 129.803C236.237 129.744 236.278 129.694 236.331 129.658L236.783 129.396C236.821 129.381 236.863 129.381 236.901 129.396C236.941 129.396 236.967 129.448 236.98 129.553L237.498 133.286L237.951 130.485C237.963 130.415 237.983 130.347 238.01 130.282C238.036 130.199 238.092 130.128 238.167 130.085L238.673 129.79C238.745 129.75 238.797 129.757 238.83 129.79C238.858 129.831 238.878 129.878 238.889 129.927L239.348 132.204L239.866 127.874C239.873 127.789 239.897 127.706 239.939 127.631C239.969 127.582 240.009 127.54 240.057 127.507L240.509 127.244C240.526 127.232 240.547 127.225 240.568 127.225C240.59 127.225 240.61 127.232 240.627 127.244C240.646 127.266 240.66 127.291 240.669 127.318C240.678 127.345 240.682 127.373 240.68 127.402C240.682 127.428 240.682 127.454 240.68 127.48L239.893 133.929C239.88 134.023 239.855 134.116 239.821 134.204C239.791 134.274 239.74 134.334 239.676 134.375L239.171 134.664C239.112 134.696 239.066 134.696 239.033 134.664C239 134.603 238.974 134.54 238.955 134.473L238.41 131.941Z" fill="#FAFAFA"/>
<path d="M241.48 129.16C241.495 128.796 241.539 128.434 241.611 128.077C241.686 127.729 241.801 127.39 241.952 127.067C242.097 126.753 242.282 126.46 242.504 126.195C242.728 125.931 242.996 125.709 243.297 125.539C243.528 125.382 243.799 125.293 244.078 125.283C244.286 125.285 244.486 125.367 244.636 125.512C244.794 125.691 244.909 125.905 244.97 126.136C245.055 126.437 245.101 126.748 245.108 127.061C245.108 127.179 245.108 127.31 245.108 127.454C245.108 127.599 245.108 127.749 245.108 127.907C245.108 128.064 245.108 128.215 245.108 128.359C245.108 128.504 245.108 128.642 245.108 128.766C245.094 129.128 245.05 129.488 244.977 129.842C244.901 130.19 244.789 130.528 244.642 130.852C244.493 131.165 244.306 131.458 244.084 131.725C243.86 131.986 243.594 132.207 243.297 132.381C243.061 132.536 242.786 132.625 242.504 132.637C242.401 132.639 242.3 132.62 242.205 132.582C242.11 132.543 242.024 132.486 241.952 132.414C241.781 132.23 241.663 132.003 241.611 131.758C241.533 131.455 241.489 131.145 241.48 130.833C241.48 130.715 241.48 130.583 241.48 130.439C241.48 130.295 241.48 130.144 241.48 129.986C241.48 129.829 241.48 129.685 241.48 129.534C241.48 129.383 241.474 129.278 241.48 129.16ZM244.275 127.592C244.289 127.431 244.271 127.27 244.222 127.116C244.172 126.963 244.092 126.821 243.986 126.7C243.816 126.549 243.579 126.555 243.297 126.7C242.991 126.88 242.748 127.15 242.602 127.474C242.416 127.856 242.317 128.275 242.313 128.701C242.313 128.943 242.313 129.212 242.313 129.507C242.313 129.803 242.313 130.065 242.313 130.301C242.299 130.462 242.317 130.624 242.366 130.777C242.416 130.93 242.496 131.072 242.602 131.193C242.772 131.338 243.009 131.325 243.297 131.161C243.598 130.979 243.838 130.712 243.986 130.393C244.172 130.013 244.271 129.596 244.275 129.173C244.275 128.924 244.275 128.655 244.275 128.359C244.275 128.064 244.281 127.828 244.275 127.592Z" fill="#FAFAFA"/>
<path d="M247.968 122.921C248.486 122.626 248.873 122.58 249.142 122.797C249.302 122.972 249.42 123.181 249.489 123.408C249.558 123.635 249.577 123.874 249.542 124.109C249.548 124.554 249.479 124.998 249.339 125.421C249.206 125.815 248.999 126.18 248.729 126.496L249.582 128.353C249.585 128.383 249.585 128.414 249.582 128.445C249.582 128.504 249.569 128.562 249.542 128.615C249.524 128.663 249.492 128.704 249.451 128.733L248.926 129.035C248.84 129.081 248.781 129.088 248.742 129.035C248.707 129.001 248.679 128.961 248.657 128.917L247.85 127.166L247.03 127.638V129.855C247.03 129.928 247.015 129.999 246.984 130.065C246.957 130.122 246.916 130.172 246.866 130.209L246.367 130.498C246.351 130.512 246.33 130.52 246.308 130.52C246.287 130.52 246.266 130.512 246.249 130.498C246.23 130.478 246.216 130.454 246.207 130.428C246.198 130.402 246.194 130.375 246.197 130.347V124.214C246.199 124.141 246.217 124.069 246.249 124.004C246.272 123.944 246.314 123.894 246.367 123.859L247.968 122.921ZM247.043 126.451L247.968 125.952C248.194 125.826 248.387 125.648 248.532 125.434C248.684 125.181 248.757 124.889 248.742 124.594C248.742 124.24 248.67 124.043 248.532 124.004C248.332 123.977 248.13 124.028 247.968 124.148L247.076 124.66L247.043 126.451Z" fill="#FAFAFA"/>
<path d="M252.363 120.396C252.601 120.24 252.874 120.146 253.157 120.12C253.362 120.113 253.562 120.186 253.715 120.324C253.888 120.506 254.009 120.733 254.062 120.98C254.15 121.305 254.199 121.64 254.207 121.977C254.207 122.436 254.207 122.908 254.207 123.387C254.193 123.778 254.145 124.166 254.062 124.548C253.987 124.903 253.873 125.249 253.721 125.578C253.575 125.881 253.389 126.163 253.17 126.418C252.951 126.679 252.689 126.9 252.396 127.074L250.841 127.92C250.825 127.934 250.804 127.941 250.782 127.941C250.761 127.941 250.74 127.934 250.723 127.92C250.704 127.9 250.689 127.876 250.68 127.85C250.671 127.824 250.668 127.797 250.671 127.769V121.636C250.673 121.563 250.691 121.491 250.723 121.426C250.746 121.366 250.788 121.316 250.841 121.281L252.363 120.396ZM253.373 122.436C253.371 122.258 253.344 122.082 253.295 121.911C253.264 121.782 253.198 121.664 253.104 121.57C253.063 121.529 253.014 121.496 252.96 121.475C252.906 121.454 252.848 121.443 252.79 121.445C252.625 121.456 252.467 121.511 252.33 121.603L251.504 122.075V126.352L252.363 125.86C252.529 125.763 252.678 125.639 252.803 125.493C252.925 125.349 253.028 125.19 253.111 125.02C253.193 124.84 253.254 124.651 253.295 124.456C253.34 124.254 253.367 124.047 253.373 123.84C253.393 123.361 253.393 122.895 253.373 122.436Z" fill="#FAFAFA"/>
<path d="M162.281 25.1838C163.414 25.4358 164.505 25.8465 165.522 26.404C166.496 26.9276 167.369 27.6207 168.1 28.4507C168.799 29.2491 169.318 30.1888 169.622 31.2059C169.931 32.2946 169.954 33.4449 169.688 34.5449C169.512 35.4171 169.166 36.2462 168.671 36.9852C168.218 37.6172 167.68 38.1825 167.07 38.6646C166.471 39.1294 165.833 39.5399 165.161 39.8913L163.272 40.895C162.703 41.1918 162.162 41.541 161.658 41.938C161.202 42.2881 160.852 42.7583 160.648 43.296C160.548 43.5416 160.382 43.755 160.169 43.9126C160.068 43.991 159.951 44.0453 159.826 44.0715C159.701 44.0976 159.571 44.0949 159.447 44.0635L156.666 43.4468C156.532 43.4188 156.405 43.3643 156.292 43.2866C156.18 43.2088 156.084 43.1095 156.01 42.9942C155.931 42.8871 155.879 42.7629 155.858 42.6319C155.836 42.5008 155.845 42.3665 155.885 42.2398C156.109 41.3784 156.504 40.5708 157.046 39.8651C157.541 39.2408 158.114 38.683 158.752 38.2054C159.373 37.7507 160.031 37.3492 160.72 37.0049C161.376 36.6704 162.032 36.3489 162.603 36.0275C163.134 35.7421 163.633 35.4013 164.092 35.0107C164.495 34.6735 164.774 34.212 164.886 33.6987C164.99 33.253 164.985 32.7887 164.871 32.3454C164.756 31.9021 164.536 31.4931 164.23 31.1534C163.463 30.3159 162.437 29.7593 161.317 29.5724C159.244 29.1132 157.495 29.8108 156.069 31.6651C155.931 31.8675 155.758 32.0431 155.557 32.1833C155.331 32.2956 155.069 32.3144 154.829 32.2358L151.871 31.5798C151.66 31.539 151.473 31.4164 151.352 31.2387C151.288 31.1437 151.244 31.036 151.225 30.9228C151.206 30.8096 151.211 30.6936 151.241 30.5827C151.492 29.6711 151.96 28.8339 152.605 28.1424C153.333 27.3404 154.197 26.674 155.157 26.1744C156.207 25.6249 157.339 25.2483 158.509 25.0592C159.763 24.8553 161.044 24.8976 162.281 25.1838ZM159.139 46.2939C159.399 46.355 159.625 46.5155 159.769 46.741C159.912 46.9666 159.962 47.2394 159.907 47.5009L159.198 50.7153C159.174 50.8499 159.122 50.9779 159.045 51.091C158.968 51.204 158.868 51.2996 158.752 51.3713C158.642 51.447 158.518 51.499 158.387 51.5238C158.256 51.5487 158.121 51.5459 157.991 51.5156L154.816 50.7875C154.681 50.7647 154.552 50.7131 154.439 50.6361C154.326 50.5591 154.231 50.4586 154.16 50.3414C154.086 50.2306 154.036 50.106 154.013 49.9751C153.989 49.8443 153.992 49.71 154.022 49.5805L154.737 46.366C154.798 46.1055 154.959 45.8789 155.184 45.7344C155.409 45.59 155.682 45.5389 155.944 45.592L159.139 46.2939Z" fill="#E48212"/>
<path d="M165.784 55.9568C166.574 55.8301 167.378 55.8146 168.172 55.9109C168.931 56.001 169.668 56.2231 170.35 56.5669C171 56.9039 171.572 57.3732 172.029 57.9445C172.441 58.5036 172.73 59.1427 172.88 59.8207C173.029 60.4986 173.034 61.2003 172.895 61.8805C172.77 62.4034 172.569 62.9051 172.298 63.3696C172.037 63.8214 171.734 64.2475 171.393 64.6422C171.059 65.0358 170.737 65.4097 170.442 65.7705C170.153 66.1067 169.896 66.4691 169.674 66.853C169.466 67.1894 169.362 67.5794 169.373 67.9747C169.367 68.1595 169.315 68.3399 169.222 68.4995C169.174 68.5731 169.112 68.6357 169.038 68.6832C168.965 68.7307 168.882 68.762 168.795 68.775L166.827 69.0899C166.735 69.1066 166.641 69.1048 166.55 69.0845C166.458 69.0642 166.372 69.0259 166.296 68.9718C166.218 68.9231 166.154 68.8567 166.107 68.778C166.06 68.6993 166.033 68.6106 166.027 68.5192C165.945 67.9087 165.989 67.2879 166.158 66.6955C166.312 66.1711 166.533 65.6685 166.814 65.1998C167.09 64.75 167.406 64.3263 167.759 63.9337C168.107 63.5401 168.415 63.1728 168.717 62.8185C168.986 62.5022 169.219 62.1567 169.412 61.7886C169.583 61.4718 169.645 61.1077 169.589 60.7521C169.54 60.4392 169.416 60.1428 169.227 59.8881C169.039 59.6334 168.792 59.428 168.507 59.2893C167.801 58.9486 167.003 58.8517 166.237 59.0137C165.543 59.1152 164.898 59.4288 164.389 59.9115C163.881 60.3942 163.534 61.0224 163.396 61.7099C163.358 61.8753 163.291 62.0328 163.2 62.1757C163.083 62.3002 162.924 62.3773 162.754 62.3921L160.681 62.7267C160.535 62.7546 160.384 62.724 160.261 62.6414C160.198 62.598 160.144 62.5416 160.105 62.476C160.065 62.4104 160.04 62.3371 160.031 62.261C159.969 61.61 160.071 60.9539 160.326 60.352C160.586 59.6516 160.968 59.0029 161.455 58.4365C161.988 57.8162 162.617 57.2848 163.318 56.8621C164.074 56.4036 164.911 56.0962 165.784 55.9568ZM169.169 70.2904C169.26 70.2761 169.352 70.2797 169.441 70.3011C169.53 70.3225 169.614 70.3612 169.688 70.415C169.765 70.4659 169.83 70.5325 169.88 70.6105C169.93 70.6885 169.963 70.7761 169.976 70.8677L170.344 73.1177C170.372 73.3003 170.327 73.4867 170.219 73.6365C170.111 73.7863 169.948 73.8875 169.766 73.9181L167.569 74.2789C167.386 74.3071 167.2 74.2623 167.05 74.1542C166.974 74.1027 166.91 74.0358 166.861 73.9579C166.813 73.8799 166.781 73.7926 166.768 73.7016L166.401 71.4515C166.384 71.3612 166.387 71.2684 166.408 71.1792C166.43 71.0899 166.47 71.0061 166.526 70.9333C166.577 70.8572 166.644 70.7927 166.722 70.7442C166.8 70.6956 166.887 70.6639 166.978 70.6512L169.169 70.2904Z" fill="#E48212"/>
<g opacity="0.2">
<path d="M165.784 55.9568C166.574 55.8301 167.378 55.8146 168.172 55.9109C168.931 56.001 169.668 56.2231 170.35 56.5669C171 56.9039 171.572 57.3732 172.029 57.9445C172.441 58.5036 172.73 59.1427 172.88 59.8207C173.029 60.4986 173.034 61.2003 172.895 61.8805C172.77 62.4034 172.569 62.9051 172.298 63.3696C172.037 63.8214 171.734 64.2475 171.393 64.6422C171.059 65.0358 170.737 65.4097 170.442 65.7705C170.153 66.1067 169.896 66.4691 169.674 66.853C169.466 67.1894 169.362 67.5794 169.373 67.9747C169.367 68.1595 169.315 68.3399 169.222 68.4995C169.174 68.5731 169.112 68.6357 169.038 68.6832C168.965 68.7307 168.882 68.762 168.795 68.775L166.827 69.0899C166.735 69.1066 166.641 69.1048 166.55 69.0845C166.458 69.0642 166.372 69.0259 166.296 68.9718C166.218 68.9231 166.154 68.8567 166.107 68.778C166.06 68.6993 166.033 68.6106 166.027 68.5192C165.945 67.9087 165.989 67.2879 166.158 66.6955C166.312 66.1711 166.533 65.6685 166.814 65.1998C167.09 64.75 167.406 64.3263 167.759 63.9337C168.107 63.5401 168.415 63.1728 168.717 62.8185C168.986 62.5022 169.219 62.1567 169.412 61.7886C169.583 61.4718 169.645 61.1077 169.589 60.7521C169.54 60.4392 169.416 60.1428 169.227 59.8881C169.039 59.6334 168.792 59.428 168.507 59.2893C167.801 58.9486 167.003 58.8517 166.237 59.0137C165.543 59.1152 164.898 59.4288 164.389 59.9115C163.881 60.3942 163.534 61.0224 163.396 61.7099C163.358 61.8753 163.291 62.0328 163.2 62.1757C163.083 62.3002 162.924 62.3773 162.754 62.3921L160.681 62.7267C160.535 62.7546 160.384 62.724 160.261 62.6414C160.198 62.598 160.144 62.5416 160.105 62.476C160.065 62.4104 160.04 62.3371 160.031 62.261C159.969 61.61 160.071 60.9539 160.326 60.352C160.586 59.6516 160.968 59.0029 161.455 58.4365C161.988 57.8162 162.617 57.2848 163.318 56.8621C164.074 56.4036 164.911 56.0962 165.784 55.9568ZM169.169 70.2904C169.26 70.2761 169.352 70.2797 169.441 70.3011C169.53 70.3225 169.614 70.3612 169.688 70.415C169.765 70.4659 169.83 70.5325 169.88 70.6105C169.93 70.6885 169.963 70.7761 169.976 70.8677L170.344 73.1177C170.372 73.3003 170.327 73.4867 170.219 73.6365C170.111 73.7863 169.948 73.8875 169.766 73.9181L167.569 74.2789C167.386 74.3071 167.2 74.2623 167.05 74.1542C166.974 74.1027 166.91 74.0358 166.861 73.9579C166.813 73.8799 166.781 73.7926 166.768 73.7016L166.401 71.4515C166.384 71.3612 166.387 71.2684 166.408 71.1792C166.43 71.0899 166.47 71.0061 166.526 70.9333C166.577 70.8572 166.644 70.7927 166.722 70.7442C166.8 70.6956 166.887 70.6639 166.978 70.6512L169.169 70.2904Z" fill="black"/>
</g>
<path d="M184.336 59.4926C184.425 59.5547 184.501 59.6345 184.559 59.727C184.616 59.8195 184.654 59.9228 184.671 60.0305C184.691 60.1372 184.69 60.2471 184.666 60.3532C184.643 60.4594 184.597 60.5594 184.533 60.6471L182.972 62.8447C182.909 62.9342 182.83 63.01 182.737 63.0675C182.645 63.125 182.541 63.163 182.434 63.1793C182.327 63.2001 182.217 63.1987 182.111 63.175C182.005 63.1513 181.905 63.1058 181.817 63.0415L179.665 61.513C179.576 61.4517 179.5 61.372 179.444 61.2793C179.387 61.1866 179.351 61.0829 179.337 60.9751C179.316 60.8684 179.318 60.7585 179.342 60.6524C179.365 60.5462 179.411 60.4462 179.475 60.3585L181.056 58.1609C181.184 57.9828 181.377 57.8622 181.593 57.8254C181.809 57.7885 182.031 57.8384 182.211 57.9641L184.336 59.4926ZM193.415 44.6079C194.2 45.1577 194.898 45.821 195.488 46.5759C196.063 47.2782 196.508 48.0781 196.8 48.9375C197.072 49.7611 197.164 50.6337 197.069 51.4959C196.958 52.4154 196.61 53.2902 196.059 54.0346C195.649 54.6366 195.123 55.1497 194.511 55.5434C193.972 55.8813 193.386 56.1377 192.772 56.3044C192.174 56.4607 191.564 56.566 190.948 56.6193L189.204 56.7767C188.68 56.8185 188.162 56.9086 187.655 57.0457C187.188 57.1518 186.76 57.3884 186.422 57.7279C186.269 57.8831 186.076 57.9922 185.864 58.0428C185.764 58.0717 185.658 58.076 185.555 58.0555C185.452 58.0349 185.356 57.9901 185.274 57.9247L183.372 56.5734C183.19 56.4435 183.065 56.2484 183.024 56.0289C182.999 55.9225 183 55.8118 183.027 55.7058C183.053 55.5998 183.104 55.5015 183.175 55.4188C183.619 54.8421 184.175 54.3603 184.808 54.0018C185.379 53.6903 185.987 53.4543 186.619 53.2999C187.228 53.1521 187.849 53.0577 188.475 53.0178C189.092 52.9785 189.669 52.9326 190.207 52.8801C190.699 52.8366 191.186 52.7398 191.657 52.5914C192.069 52.4541 192.424 52.1843 192.667 51.8239C192.886 51.5196 193.029 51.1669 193.083 50.7957C193.136 50.4245 193.1 50.0458 192.976 49.6919C192.665 48.8176 192.072 48.0719 191.29 47.573C189.873 46.5628 188.327 46.53 186.652 47.4746C186.483 47.5819 186.296 47.6575 186.101 47.6977C185.999 47.7048 185.896 47.6916 185.8 47.659C185.703 47.6263 185.613 47.5748 185.536 47.5074L183.516 46.0708C183.443 46.0222 183.38 45.9595 183.332 45.8862C183.283 45.813 183.25 45.7307 183.234 45.6444C183.218 45.5551 183.221 45.4636 183.243 45.3755C183.264 45.2874 183.304 45.2048 183.359 45.1327C183.835 44.5219 184.455 44.0376 185.163 43.7223C185.967 43.358 186.828 43.1361 187.708 43.0663C188.676 42.9854 189.651 43.063 190.594 43.2959C191.612 43.5412 192.571 43.9873 193.415 44.6079Z" fill="#E48212"/>
<g opacity="0.6">
<path d="M184.336 59.4926C184.425 59.5547 184.501 59.6345 184.559 59.727C184.616 59.8195 184.654 59.9228 184.671 60.0305C184.691 60.1372 184.69 60.2471 184.666 60.3532C184.643 60.4594 184.597 60.5594 184.533 60.6471L182.972 62.8447C182.909 62.9342 182.83 63.01 182.737 63.0675C182.645 63.125 182.541 63.163 182.434 63.1793C182.327 63.2001 182.217 63.1987 182.111 63.175C182.005 63.1513 181.905 63.1058 181.817 63.0415L179.665 61.513C179.576 61.4517 179.5 61.372 179.444 61.2793C179.387 61.1866 179.351 61.0829 179.337 60.9751C179.316 60.8684 179.318 60.7585 179.342 60.6524C179.365 60.5462 179.411 60.4462 179.475 60.3585L181.056 58.1609C181.184 57.9828 181.377 57.8622 181.593 57.8254C181.809 57.7885 182.031 57.8384 182.211 57.9641L184.336 59.4926ZM193.415 44.6079C194.2 45.1577 194.898 45.821 195.488 46.5759C196.063 47.2782 196.508 48.0781 196.8 48.9375C197.072 49.7611 197.164 50.6337 197.069 51.4959C196.958 52.4154 196.61 53.2902 196.059 54.0346C195.649 54.6366 195.123 55.1497 194.511 55.5434C193.972 55.8813 193.386 56.1377 192.772 56.3044C192.174 56.4607 191.564 56.566 190.948 56.6193L189.204 56.7767C188.68 56.8185 188.162 56.9086 187.655 57.0457C187.188 57.1518 186.76 57.3884 186.422 57.7279C186.269 57.8831 186.076 57.9922 185.864 58.0428C185.764 58.0717 185.658 58.076 185.555 58.0555C185.452 58.0349 185.356 57.9901 185.274 57.9247L183.372 56.5734C183.19 56.4435 183.065 56.2484 183.024 56.0289C182.999 55.9225 183 55.8118 183.027 55.7058C183.053 55.5998 183.104 55.5015 183.175 55.4188C183.619 54.8421 184.175 54.3603 184.808 54.0018C185.379 53.6903 185.987 53.4543 186.619 53.2999C187.228 53.1521 187.849 53.0577 188.475 53.0178C189.092 52.9785 189.669 52.9326 190.207 52.8801C190.699 52.8366 191.186 52.7398 191.657 52.5914C192.069 52.4541 192.424 52.1843 192.667 51.8239C192.886 51.5196 193.029 51.1669 193.083 50.7957C193.136 50.4245 193.1 50.0458 192.976 49.6919C192.665 48.8176 192.072 48.0719 191.29 47.573C189.873 46.5628 188.327 46.53 186.652 47.4746C186.483 47.5819 186.296 47.6575 186.101 47.6977C185.999 47.7048 185.896 47.6916 185.8 47.659C185.703 47.6263 185.613 47.5748 185.536 47.5074L183.516 46.0708C183.443 46.0222 183.38 45.9595 183.332 45.8862C183.283 45.813 183.25 45.7307 183.234 45.6444C183.218 45.5551 183.221 45.4636 183.243 45.3755C183.264 45.2874 183.304 45.2048 183.359 45.1327C183.835 44.5219 184.455 44.0376 185.163 43.7223C185.967 43.358 186.828 43.1361 187.708 43.0663C188.676 42.9854 189.651 43.063 190.594 43.2959C191.612 43.5412 192.571 43.9873 193.415 44.6079Z" fill="white"/>
</g>
<path d="M135.484 117.562H112.176V61.0932C112.176 56.1887 114.124 51.485 117.592 48.017C121.06 44.5489 125.764 42.6006 130.669 42.6006H132.82C137.725 42.6006 142.429 44.5489 145.897 48.017C149.365 51.485 151.313 56.1887 151.313 61.0932V101.765C151.304 105.958 149.633 109.976 146.665 112.937C143.697 115.898 139.676 117.562 135.484 117.562Z" fill="#263238"/>
<path d="M109.906 253.505C109.494 255.844 109.275 258.214 109.25 260.589C109.165 264.893 108.378 266.421 108.273 269.951C108.148 273.985 108.85 275.494 110.483 277.764C112.117 280.033 116.388 282.087 118.237 278.256C120.087 274.424 119.818 271.912 119.235 267.956C118.638 263.863 118.579 261.6 118.211 258.484C117.909 255.735 117.555 253.642 117.555 253.642L109.906 253.505Z" fill="#263238"/>
<path d="M122.121 224.923L107.951 224.667C108.161 234.126 109.664 244.629 109.919 253.531C109.972 255.204 109.88 266.513 110.51 269.931C111.461 275.1 117.588 274.398 117.916 271.308C118.244 268.219 117.522 255.013 117.542 253.649C117.483 247.955 120.166 238.344 121.55 228.124C121.609 227.632 122.055 225.415 122.121 224.923Z" fill="#FFA8A7"/>
<path d="M140.325 246.144C140.325 246.144 139.767 245.843 139.669 246.439C139.531 247.148 139.321 248.611 139.013 249.779C138.606 251.399 138.265 254.069 138.508 255.394C138.751 256.719 141.834 258.411 143.835 259.028C146.3 259.789 148.549 261.127 150.395 262.931C152.363 264.794 156.646 266.552 159.579 266.533C163.023 266.533 165.424 265.385 166.558 263.541C167.693 261.698 165.522 261.475 161.586 258.949L158.536 256.981C152.297 252.908 150.008 250.73 148.256 246.656L140.325 246.144Z" fill="#263238"/>
<path d="M148.308 243.619C148.203 240.693 150.224 215.824 150.224 215.824L136.769 221.958C139.649 239.158 140.266 243.219 140.312 246.033C140.253 246.269 140.228 246.512 140.24 246.754C140.24 250.093 144.025 251.897 146.964 254.128C149.462 256.085 152.124 257.823 154.921 259.323C157.059 260.393 161.402 260.491 161.94 259.12C158.358 256.384 153.15 252.291 150.303 249.168C148.912 247.699 148.413 246.551 148.308 243.619Z" fill="#FFA8A7"/>
<path d="M113.757 132.617C108.588 143.959 108.588 152.736 109.447 167.214C110.208 180.498 111.474 192.208 111.474 192.208C111.277 194.563 108.004 199.162 107.577 209.579C107.184 219.314 108.233 231.693 108.233 231.693C108.233 231.693 115.587 235.766 121.025 231.653C121.025 231.653 126.273 206.601 127.808 194.412C129.12 183.778 131.482 170.193 131.482 170.193L136.448 194.34C135.376 197.766 134.599 201.278 134.126 204.836C133.43 212.006 137.445 226.084 137.445 226.084C137.445 226.084 145.042 228.347 149.68 224.234C149.68 224.234 151.411 201.346 152.061 192.713C152.927 181.148 151.103 149.843 149.68 133.266L113.757 132.617Z" fill="#455A64"/>
<path d="M131.495 170.173L133.535 151.975C133.535 151.975 142.68 150.755 146.826 146.859C145.639 148.715 144.058 150.288 142.196 151.465C140.333 152.641 138.234 153.394 136.048 153.668L133.096 170.599L136.448 194.34L131.495 170.173Z" fill="#263238"/>
<path d="M168.526 128.143C168.904 124.822 169.071 121.481 169.025 118.139C168.822 115.253 168.303 114.78 164.269 109.67C158.824 102.762 154.173 96.55 149.253 90.3771C145.737 85.9687 142.037 85.2931 138.442 85.4899C135.923 85.6276 140.843 97.7439 143.316 104.914L157.44 120.12C157.878 120.72 158.078 121.461 158.004 122.2L157.151 135.136L161.383 140.804C161.383 140.804 167.792 135.28 168.526 128.143Z" fill="#FFA8A7"/>
<path d="M124.824 85.8835C122.088 86.0737 117.116 86.5395 117.116 86.5395C114.249 88.1401 113.521 89.4587 112.989 93.2635C112.76 94.8904 114.085 99.2134 115.22 105.36L117.372 116.755L117.135 122.41C116.02 125.86 113.495 130.144 111.264 136.461C122.219 142.575 131.403 142.805 139.735 141.709C146.085 140.889 149.45 139.354 150.572 137.832C150.336 131.594 149.916 127.736 149.784 121.216C149.739 118.48 149.903 115.712 150.014 112.563C154.272 109.06 154.324 103.235 151.982 99.443C146.583 90.6985 141.329 85.1947 137.852 85.4768L124.824 85.8835Z" fill="#E48212"/>
<path opacity="0.6" d="M124.824 85.8835C122.088 86.0737 117.116 86.5395 117.116 86.5395C114.249 88.1401 113.521 89.4587 112.989 93.2635C112.76 94.8904 114.085 99.2134 115.22 105.36L117.372 116.755L117.135 122.41C116.02 125.86 113.495 130.144 111.264 136.461C122.219 142.575 131.403 142.805 139.735 141.709C146.085 140.889 149.45 139.354 150.572 137.832C150.336 131.594 149.916 127.736 149.784 121.216C149.739 118.48 149.903 115.712 150.014 112.563C154.272 109.06 154.324 103.235 151.982 99.443C146.583 90.6985 141.329 85.1947 137.852 85.4768L124.824 85.8835Z" fill="white"/>
<path opacity="0.1" d="M141.532 112.648C141.532 112.648 136.533 116.532 130.82 114.505C129.215 113.999 127.768 113.088 126.619 111.86C125.47 110.631 124.657 109.127 124.26 107.492C124.26 107.492 123.656 114.019 130.852 116.243C137.826 118.388 141.532 112.648 141.532 112.648Z" fill="black"/>
<path d="M148.315 67.9681C148.099 77.4407 145.035 79.7761 143.487 80.4321C141.939 81.0881 138.974 80.6945 136.087 80.2156V85.9359C136.087 85.9359 139.42 89.4258 139.17 92.0301C138.921 94.6345 133.922 94.9297 130.196 92.3778C128.14 90.9656 126.281 89.2869 124.666 87.3857C124.356 87.0189 124.187 86.5539 124.187 86.0737V72.6913C124.187 72.6913 122.606 74.3641 119.812 72.4486C119.209 72.0637 118.693 71.5577 118.296 70.9625C117.899 70.3674 117.63 69.6962 117.507 68.9916C117.383 68.287 117.408 67.5644 117.579 66.8699C117.75 66.1753 118.064 65.5239 118.5 64.957C119.72 63.5204 122.816 63.422 124.299 65.613C125.139 67.2465 125.25 68.893 126.188 68.237C128.681 66.4396 127.343 62.333 130.354 60.365C131.342 59.8493 132.368 59.4107 133.424 59.053C138.796 57.1965 143.454 55.6353 144.576 51.9617C146.688 53.1687 148.577 56.7964 148.315 67.9681Z" fill="#FFA8A7"/>
<path d="M137.721 76.4305C138.409 76.4305 138.967 75.8725 138.967 75.1841C138.967 74.4958 138.409 73.9377 137.721 73.9377C137.032 73.9377 136.474 74.4958 136.474 75.1841C136.474 75.8725 137.032 76.4305 137.721 76.4305Z" fill="#B16668"/>
<path d="M136.894 66.5315C136.894 66.7882 136.818 67.0391 136.677 67.2532C136.535 67.4673 136.334 67.6352 136.098 67.7361C135.862 67.8371 135.602 67.8666 135.349 67.8211C135.097 67.7755 134.863 67.6569 134.677 67.48C134.491 67.303 134.362 67.0754 134.304 66.8254C134.246 66.5753 134.263 66.3138 134.352 66.0732C134.441 65.8327 134.599 65.6236 134.806 65.4718C135.013 65.3201 135.26 65.2324 135.516 65.2195C135.694 65.2106 135.872 65.238 136.039 65.2999C136.206 65.3619 136.358 65.4571 136.487 65.5798C136.616 65.7026 136.718 65.8502 136.788 66.0138C136.858 66.1774 136.894 66.3536 136.894 66.5315Z" fill="#263238"/>
<path d="M146.832 66.6626C146.846 66.8231 146.827 66.9847 146.778 67.1379C146.728 67.2911 146.648 67.4329 146.543 67.5551C146.438 67.6772 146.31 67.7772 146.166 67.8492C146.022 67.9212 145.865 67.9639 145.704 67.9746C145.542 67.9896 145.379 67.9699 145.225 67.9169C145.071 67.8638 144.93 67.7786 144.811 67.667C144.693 67.5553 144.599 67.4197 144.537 67.2691C144.475 67.1186 144.446 66.9566 144.451 66.7938C144.434 66.6322 144.451 66.4687 144.499 66.3135C144.547 66.1584 144.627 66.0147 144.733 65.8914C144.839 65.7681 144.969 65.6677 145.115 65.5965C145.261 65.5252 145.42 65.4845 145.583 65.4769C145.745 65.4693 145.907 65.4949 146.06 65.5522C146.212 65.6096 146.35 65.6973 146.467 65.8102C146.584 65.9231 146.677 66.0586 146.74 66.2086C146.803 66.3586 146.834 66.5198 146.832 66.6823V66.6626Z" fill="#263238"/>
<path d="M135.208 69.9033C134.077 69.9033 132.991 69.4542 132.191 68.6548C131.39 67.8553 130.939 66.7708 130.938 65.6393C130.938 62.7397 133.929 62.7397 135.208 62.7397C136.487 62.7397 139.472 62.7397 139.472 65.6393C139.47 66.7696 139.021 67.8532 138.221 68.6525C137.422 69.4517 136.338 69.9015 135.208 69.9033ZM135.208 63.4089C132.584 63.4089 131.613 64.0649 131.613 65.6393C131.613 66.5962 131.993 67.5139 132.67 68.1905C133.347 68.8671 134.264 69.2473 135.221 69.2473C136.178 69.2473 137.096 68.8671 137.772 68.1905C138.449 67.5139 138.829 66.5962 138.829 65.6393C138.803 64.0321 137.793 63.4089 135.208 63.4089Z" fill="#455A64"/>
<path d="M146.039 69.9033C144.907 69.9033 143.822 69.4542 143.021 68.6548C142.221 67.8553 141.77 66.7708 141.768 65.6393C141.768 62.7397 144.759 62.7397 146.039 62.7397C147.318 62.7397 150.303 62.7397 150.303 65.6393C150.301 66.7696 149.851 67.8532 149.052 68.6525C148.253 69.4517 147.169 69.9015 146.039 69.9033ZM146.039 63.4089C143.454 63.4089 142.444 64.0649 142.444 65.6393C142.444 66.5962 142.824 67.5139 143.501 68.1905C144.177 68.8671 145.095 69.2473 146.052 69.2473C147.009 69.2473 147.926 68.8671 148.603 68.1905C149.28 67.5139 149.66 66.5962 149.66 65.6393C149.634 64.0321 148.623 63.4089 146.039 63.4089Z" fill="#455A64"/>
<path d="M140.135 64.2617L140.345 72.2321L144.536 70.9332L140.135 64.2617Z" fill="#F28F8F"/>
<path d="M136.081 80.2354C133.037 79.8352 126.772 78.0378 125.795 75.5581C126.188 76.8113 126.955 77.9145 127.992 78.72C129.862 80.3272 136.081 82.1312 136.081 82.1312V80.2354Z" fill="#F28F8F"/>
<path d="M136.232 60.3913L133.45 62.0903C133.231 61.7085 133.167 61.2569 133.272 60.8293C133.377 60.4017 133.643 60.0311 134.014 59.7943C134.198 59.683 134.402 59.61 134.614 59.5798C134.827 59.5496 135.043 59.5627 135.251 59.6185C135.458 59.6743 135.652 59.7716 135.82 59.9044C135.989 60.0372 136.129 60.2029 136.232 60.3913Z" fill="#263238"/>
<path d="M147.547 62.2806L144.451 61.1982C144.511 60.993 144.612 60.8023 144.749 60.6376C144.885 60.473 145.054 60.338 145.244 60.2409C145.435 60.1438 145.643 60.0867 145.856 60.0731C146.07 60.0595 146.284 60.0897 146.485 60.1618C146.9 60.311 147.242 60.6142 147.44 61.0087C147.638 61.4031 147.676 61.8586 147.547 62.2806Z" fill="#263238"/>
<path d="M139.138 65.9804C139.093 65.9804 139.049 65.9716 139.008 65.9544C138.967 65.9371 138.93 65.9119 138.899 65.8801C138.868 65.8484 138.843 65.8107 138.827 65.7694C138.81 65.728 138.802 65.6838 138.803 65.6393C138.803 65.0948 139.879 64.7406 140.85 64.7406C141.821 64.7406 142.444 65.0948 142.444 65.6393C142.423 65.7106 142.38 65.7733 142.321 65.818C142.262 65.8626 142.19 65.8867 142.116 65.8867C142.042 65.8867 141.97 65.8626 141.91 65.818C141.851 65.7733 141.808 65.7106 141.788 65.6393C141.788 65.5737 141.453 65.4097 140.869 65.4097C140.399 65.3997 139.932 65.4799 139.492 65.6459C139.492 65.6915 139.483 65.7367 139.465 65.7786C139.447 65.8206 139.42 65.8583 139.387 65.8897C139.354 65.921 139.315 65.9452 139.272 65.9609C139.229 65.9765 139.183 65.9831 139.138 65.9804Z" fill="#455A64"/>
<path d="M131.285 65.6918H131.246L123.748 65.0358C123.397 64.6885 122.98 64.4162 122.521 64.2355L131.325 65.0489C131.413 65.0604 131.493 65.1059 131.548 65.1758C131.603 65.2457 131.629 65.3343 131.62 65.4228C131.604 65.4998 131.563 65.5689 131.501 65.618C131.44 65.6672 131.364 65.6933 131.285 65.6918Z" fill="#455A64"/>
<path d="M100.499 73.5113C102.953 70.2313 104.625 67.7582 106.862 64.9833C108.135 63.3892 108.948 62.2478 110.142 60.6144C110.982 59.486 111.454 58.5348 112.412 58.1872C113.447 57.7632 114.379 57.1236 115.148 56.311C115.62 55.7886 116.058 55.2364 116.46 54.6579C117.866 52.7654 119.536 51.0842 121.419 49.6657C123.387 48.1832 125.585 47.0417 127.612 45.6313C128.819 44.7851 130.111 43.3812 128.642 42.0692C128.191 41.6897 127.652 41.4302 127.074 41.3148C123.499 40.5408 120.389 41.7675 116.893 42.6596C115.374 43.0387 113.889 43.5411 112.452 44.1619C111.745 44.4414 111.082 44.8214 110.484 45.2902C109.647 46.1337 108.961 47.1144 108.456 48.1897C106.928 50.9187 103.648 53.359 101.352 55.5172C98.6689 58.0428 96.268 60.3585 93.2045 63.14C90.4493 65.6524 87.7531 67.9616 85.2275 70.7036C83.1349 72.9668 83.9155 74.738 84.191 75.3547C85.8966 78.8577 87.8056 80.1172 90.095 82.2886C94.031 86.0475 107.643 96.8649 112.15 100.44C113.118 101.201 113.878 102.194 114.36 103.327L115.226 105.327C120.369 106.272 123.8 98.5508 119.543 89.2553C118.838 87.7522 117.761 86.4539 116.414 85.4833C111.035 81.567 100.499 73.5113 100.499 73.5113Z" fill="#FFA8A7"/>
<path d="M100.499 73.5114C98.8622 75.5251 96.6807 77.0258 94.2147 77.8344C94.2147 77.8344 97.4947 78.6741 101.988 74.6397L100.499 73.5114Z" fill="#F28F8F"/>
<path d="M167.188 121.301L166.348 120.579C166.223 120.497 166.08 120.445 165.931 120.428C165.781 120.411 165.63 120.429 165.489 120.481L156.377 122.961C155.918 123.114 155.498 123.364 155.145 123.695C154.791 124.025 154.514 124.428 154.331 124.876L147.771 143.789C147.692 143.943 147.661 144.117 147.682 144.289C147.703 144.461 147.775 144.622 147.889 144.753L148.755 145.501C148.881 145.588 149.026 145.643 149.178 145.661C149.33 145.679 149.484 145.66 149.627 145.606L158.752 143.126C159.211 142.973 159.631 142.723 159.985 142.392C160.338 142.061 160.616 141.658 160.799 141.211C162.111 137.491 166.047 126.018 167.359 122.298C167.516 121.832 167.437 121.478 167.188 121.301Z" fill="#455A64"/>
<path d="M148.63 144.517L155.19 125.604C155.372 125.157 155.65 124.754 156.003 124.425C156.357 124.095 156.777 123.846 157.237 123.695L166.342 121.216C167.188 120.986 167.654 121.471 167.352 122.298C166.04 126.018 162.104 137.491 160.792 141.211C160.609 141.658 160.331 142.061 159.978 142.392C159.625 142.723 159.204 142.973 158.745 143.126L149.64 145.632C148.8 145.829 148.348 145.343 148.63 144.517Z" fill="#E48212"/>
<path d="M156.246 124.22C155.772 124.579 155.405 125.06 155.183 125.611L148.623 144.517C148.548 144.667 148.517 144.835 148.533 145.002C148.549 145.169 148.613 145.329 148.715 145.461L147.902 144.766C147.785 144.637 147.711 144.476 147.689 144.303C147.666 144.131 147.697 143.956 147.777 143.802L154.337 124.889C154.545 124.375 154.881 123.923 155.315 123.577L156.246 124.22Z" fill="#37474F"/>
<path d="M164.689 129.921C164.033 131.843 161.756 133.129 157.991 134.021C154.226 134.913 152.146 138.908 152.743 140.122C153.34 141.335 159.428 142.47 161.861 142.122C164.295 141.775 166.735 138.258 167.477 137.17C168.218 136.081 169.071 128.484 168.29 127.441C167.51 126.398 165.863 126.562 165.863 126.562L164.689 129.921Z" fill="#F28F8F"/>
</svg>
