<svg width="22" height="22" viewBox="0 0 22 22" fill="none" xmlns="http://www.w3.org/2000/svg">
<path d="M0.697754 10.537H20.6978M0.697754 10.537C0.697754 16.0598 5.17491 20.537 10.6978 20.537M0.697754 10.537C0.697754 5.01414 5.17491 0.536987 10.6978 0.536987M20.6978 10.537C20.6978 16.0598 16.2206 20.537 10.6978 20.537M20.6978 10.537C20.6978 5.01414 16.2206 0.536987 10.6978 0.536987M10.6978 0.536987C13.199 3.27534 14.6205 6.82902 14.6978 10.537C14.6205 14.245 13.199 17.7986 10.6978 20.537M10.6978 0.536987C8.19647 3.27534 6.775 6.82902 6.69775 10.537C6.775 14.245 8.19647 17.7986 10.6978 20.537" stroke="white" stroke-linecap="round" stroke-linejoin="round"/>
</svg>
