<svg width="24" height="24" viewBox="0 0 24 24" fill="none" xmlns="http://www.w3.org/2000/svg">
<path d="M9 16C9 16.2652 8.89464 16.5196 8.70711 16.7071C8.51957 16.8946 8.26522 17 8 17C7.73478 17 7.48043 16.8946 7.29289 16.7071C7.10536 16.5196 7 16.2652 7 16C7 15.7348 7.10536 15.4804 7.29289 15.2929C7.48043 15.1054 7.73478 15 8 15C8.26522 15 8.51957 15.1054 8.70711 15.2929C8.89464 15.4804 9 15.7348 9 16ZM13 16C13 16.2652 12.8946 16.5196 12.7071 16.7071C12.5196 16.8946 12.2652 17 12 17C11.7348 17 11.4804 16.8946 11.2929 16.7071C11.1054 16.5196 11 16.2652 11 16C11 15.7348 11.1054 15.4804 11.2929 15.2929C11.4804 15.1054 11.7348 15 12 15C12.2652 15 12.5196 15.1054 12.7071 15.2929C12.8946 15.4804 13 15.7348 13 16ZM17 16C17 16.2652 16.8946 16.5196 16.7071 16.7071C16.5196 16.8946 16.2652 17 16 17C15.7348 17 15.4804 16.8946 15.2929 16.7071C15.1054 16.5196 15 16.2652 15 16C15 15.7348 15.1054 15.4804 15.2929 15.2929C15.4804 15.1054 15.7348 15 16 15C16.2652 15 16.5196 15.1054 16.7071 15.2929C16.8946 15.4804 17 15.7348 17 16Z" fill="black"/>
<path d="M6 10V8.00001C6 7.66001 6.028 7.32501 6.083 7.00001M18 10V8.00001C18.0001 6.78125 17.629 5.59136 16.9361 4.5887C16.2433 3.58604 15.2615 2.81815 14.1215 2.38721C12.9815 1.95628 11.7372 1.88275 10.5544 2.17639C9.37152 2.47004 8.30613 3.11694 7.5 4.03101M11 22H8C5.172 22 3.757 22 2.879 21.121C2 20.243 2 18.828 2 16C2 13.172 2 11.757 2.879 10.879C3.757 10 5.172 10 8 10H16C18.828 10 20.243 10 21.121 10.879C22 11.757 22 13.172 22 16C22 18.828 22 20.243 21.121 21.121C20.243 22 18.828 22 16 22H15" stroke="black" stroke-width="1.5" stroke-linecap="round"/>
</svg>
