<svg width="20" height="21" viewBox="0 0 20 21" fill="none" xmlns="http://www.w3.org/2000/svg">
<path d="M3.69775 15.4979C3.69775 15.8492 3.69775 16.0249 3.71342 16.1776C3.8435 17.4454 4.76036 18.4926 5.99981 18.7891C6.1491 18.8248 6.32326 18.848 6.67144 18.8944L13.2634 19.7734C15.1398 20.0236 16.078 20.1486 16.8062 19.8591C17.4455 19.6049 17.978 19.1387 18.3145 18.5386C18.6978 17.855 18.6978 16.9085 18.6978 15.0155V5.98043C18.6978 4.08738 18.6978 3.14086 18.3145 2.45734C17.978 1.85722 17.4455 1.39099 16.8062 1.13678C16.078 0.847245 15.1398 0.97234 13.2634 1.22253L6.67144 2.10146C6.32321 2.14789 6.1491 2.1711 5.99981 2.20681C4.76036 2.5033 3.8435 3.55052 3.71342 4.81829C3.69775 4.97099 3.69775 5.14664 3.69775 5.49795M9.69775 6.49795L13.6978 10.4979M13.6978 10.4979L9.69775 14.4979M13.6978 10.4979H0.697754" stroke="white" stroke-linecap="round" stroke-linejoin="round"/>
</svg>
