<svg width="199" height="186" viewBox="0 0 199 186" fill="none" xmlns="http://www.w3.org/2000/svg">
<path d="M19.5938 170.359C19.8958 170.359 20.1562 170.453 20.375 170.641C20.5938 170.828 20.7031 171.073 20.7031 171.375V176.406C20.7031 176.594 20.6667 176.75 20.5938 176.875C20.5312 176.99 20.4427 177.104 20.3281 177.219C19.2135 178.26 18.0156 179.021 16.7344 179.5C15.4531 179.969 14.1354 180.203 12.7812 180.203C11.8542 180.203 10.9531 180.078 10.0781 179.828C9.21354 179.578 8.40104 179.229 7.64062 178.781C6.88021 178.323 6.1875 177.776 5.5625 177.141C4.9375 176.505 4.40104 175.802 3.95312 175.031C3.50521 174.26 3.15625 173.438 2.90625 172.562C2.65625 171.677 2.53125 170.755 2.53125 169.797C2.53125 168.849 2.65104 167.938 2.89062 167.062C3.13021 166.177 3.46875 165.349 3.90625 164.578C4.35417 163.797 4.89062 163.089 5.51562 162.453C6.14062 161.807 6.83854 161.26 7.60938 160.812C8.38021 160.354 9.20833 160 10.0938 159.75C10.9792 159.49 11.9115 159.359 12.8906 159.359C14.2969 159.359 15.625 159.62 16.875 160.141C18.1354 160.651 19.2865 161.427 20.3281 162.469C20.5365 162.698 20.6406 162.943 20.6406 163.203C20.6406 163.339 20.6094 163.469 20.5469 163.594C20.4844 163.719 20.401 163.828 20.2969 163.922C20.2031 164.016 20.0938 164.094 19.9688 164.156C19.8438 164.208 19.7135 164.234 19.5781 164.234C19.3073 164.234 19.0677 164.13 18.8594 163.922C18.0156 163.109 17.0781 162.495 16.0469 162.078C15.026 161.661 13.9792 161.453 12.9062 161.453C11.7812 161.453 10.7188 161.667 9.71875 162.094C8.71875 162.521 7.83854 163.109 7.07812 163.859C6.31771 164.599 5.71354 165.479 5.26562 166.5C4.82812 167.51 4.60938 168.604 4.60938 169.781C4.60938 170.896 4.81771 171.958 5.23438 172.969C5.66146 173.969 6.24479 174.854 6.98438 175.625C7.72396 176.385 8.59375 176.995 9.59375 177.453C10.5938 177.901 11.6719 178.125 12.8281 178.125C13.8698 178.125 14.8802 177.958 15.8594 177.625C16.8385 177.281 17.75 176.734 18.5938 175.984V172.422H14.7031C14.4115 172.422 14.1667 172.323 13.9688 172.125C13.7812 171.917 13.6875 171.667 13.6875 171.375C13.6875 171.094 13.7812 170.849 13.9688 170.641C14.1667 170.432 14.4115 170.328 14.7031 170.328L19.5938 170.359ZM29.2812 177.969C29.5833 177.969 29.8281 178.068 30.0156 178.266C30.2135 178.464 30.3125 178.708 30.3125 179C30.3125 179.302 30.2188 179.547 30.0312 179.734C29.8438 179.922 29.599 180.016 29.2969 180.016C28.5573 180.016 27.875 179.891 27.25 179.641C26.625 179.391 26.0833 179.036 25.625 178.578C25.1667 178.109 24.8073 177.552 24.5469 176.906C24.2969 176.25 24.1719 175.521 24.1719 174.719V160.578C24.1719 160.276 24.2656 160.026 24.4531 159.828C24.651 159.62 24.8958 159.516 25.1875 159.516C25.4688 159.516 25.7135 159.62 25.9219 159.828C26.1406 160.026 26.25 160.276 26.25 160.578V174.688C26.25 175.729 26.5156 176.536 27.0469 177.109C27.5885 177.682 28.3333 177.969 29.2812 177.969ZM33.4219 172.578C33.4219 173.328 33.5677 174.042 33.8594 174.719C34.151 175.385 34.5469 175.974 35.0469 176.484C35.5469 176.984 36.1302 177.38 36.7969 177.672C37.474 177.964 38.1979 178.109 38.9688 178.109C39.75 178.109 40.4792 177.964 41.1562 177.672C41.8333 177.38 42.4167 176.984 42.9062 176.484C43.4062 175.974 43.7969 175.385 44.0781 174.719C44.3698 174.042 44.5156 173.328 44.5156 172.578C44.5156 171.818 44.3698 171.099 44.0781 170.422C43.7969 169.745 43.4062 169.156 42.9062 168.656C42.4167 168.156 41.8333 167.76 41.1562 167.469C40.4792 167.177 39.75 167.031 38.9688 167.031C38.1979 167.031 37.474 167.177 36.7969 167.469C36.1302 167.76 35.5469 168.156 35.0469 168.656C34.5469 169.156 34.151 169.745 33.8594 170.422C33.5677 171.099 33.4219 171.818 33.4219 172.578ZM31.3438 172.578C31.3438 171.516 31.5417 170.521 31.9375 169.594C32.3438 168.656 32.8906 167.844 33.5781 167.156C34.276 166.469 35.0833 165.927 36 165.531C36.9271 165.125 37.9167 164.922 38.9688 164.922C40.0312 164.922 41.026 165.125 41.9531 165.531C42.8802 165.927 43.6875 166.474 44.375 167.172C45.0625 167.859 45.6042 168.667 46 169.594C46.3958 170.521 46.5938 171.516 46.5938 172.578C46.5938 173.63 46.3958 174.62 46 175.547C45.6042 176.464 45.0625 177.266 44.375 177.953C43.6875 178.641 42.8802 179.188 41.9531 179.594C41.026 179.99 40.0312 180.188 38.9688 180.188C37.9167 180.188 36.9271 179.99 36 179.594C35.0833 179.188 34.276 178.641 33.5781 177.953C32.8906 177.266 32.3438 176.464 31.9375 175.547C31.5417 174.62 31.3438 173.63 31.3438 172.578ZM48.7031 160.516C48.7031 160.214 48.8021 159.958 49 159.75C49.2083 159.542 49.4583 159.438 49.75 159.438C50.0521 159.438 50.2969 159.542 50.4844 159.75C50.6823 159.958 50.7812 160.214 50.7812 160.516V168.594C50.9792 168.062 51.2604 167.578 51.625 167.141C52 166.693 52.4323 166.307 52.9219 165.984C53.4219 165.651 53.9635 165.396 54.5469 165.219C55.1302 165.031 55.7292 164.938 56.3438 164.938C57.3958 164.938 58.3854 165.135 59.3125 165.531C60.2396 165.927 61.0469 166.469 61.7344 167.156C62.4219 167.844 62.9635 168.651 63.3594 169.578C63.7552 170.505 63.9531 171.5 63.9531 172.562C63.9531 173.615 63.7552 174.604 63.3594 175.531C62.9635 176.458 62.4219 177.266 61.7344 177.953C61.0469 178.641 60.2396 179.188 59.3125 179.594C58.3854 179.99 57.3958 180.188 56.3438 180.188C55.2917 180.188 54.3021 179.99 53.375 179.594C52.4479 179.188 51.6354 178.641 50.9375 177.953C50.25 177.266 49.7031 176.464 49.2969 175.547C48.901 174.62 48.7031 173.63 48.7031 172.578V160.516ZM50.7812 172.562C50.7812 173.312 50.9271 174.026 51.2188 174.703C51.5104 175.37 51.9062 175.958 52.4062 176.469C52.9062 176.969 53.4948 177.365 54.1719 177.656C54.849 177.948 55.5729 178.094 56.3438 178.094C57.125 178.094 57.849 177.948 58.5156 177.656C59.1927 177.365 59.7812 176.969 60.2812 176.469C60.7812 175.958 61.1719 175.37 61.4531 174.703C61.7448 174.026 61.8906 173.312 61.8906 172.562C61.8906 171.792 61.7448 171.073 61.4531 170.406C61.1719 169.729 60.7812 169.141 60.2812 168.641C59.7812 168.141 59.1927 167.75 58.5156 167.469C57.849 167.177 57.125 167.031 56.3438 167.031C55.5729 167.031 54.849 167.177 54.1719 167.469C53.4948 167.75 52.9062 168.141 52.4062 168.641C51.9062 169.141 51.5104 169.729 51.2188 170.406C50.9271 171.073 50.7812 171.792 50.7812 172.562ZM72.9688 180.188C71.9167 180.188 70.9323 179.99 70.0156 179.594C69.099 179.188 68.3021 178.641 67.625 177.953C66.9479 177.266 66.4115 176.464 66.0156 175.547C65.6198 174.62 65.4219 173.63 65.4219 172.578C65.4219 171.516 65.6198 170.521 66.0156 169.594C66.4115 168.667 66.9479 167.859 67.625 167.172C68.3021 166.474 69.099 165.927 70.0156 165.531C70.9323 165.125 71.9167 164.922 72.9688 164.922C74.0312 164.922 75.0208 165.125 75.9375 165.531C76.8542 165.927 77.651 166.469 78.3281 167.156C79.0052 167.844 79.5365 168.656 79.9219 169.594C80.3177 170.521 80.5156 171.516 80.5156 172.578V179C80.5156 179.302 80.4115 179.557 80.2031 179.766C79.9948 179.974 79.7396 180.078 79.4375 180.078C79.125 180.078 78.875 179.974 78.6875 179.766C78.5104 179.557 78.4219 179.302 78.4219 179L78.4062 177.875C77.7188 178.594 76.9115 179.161 75.9844 179.578C75.0677 179.984 74.0625 180.188 72.9688 180.188ZM72.9688 178.109C73.75 178.109 74.474 177.964 75.1406 177.672C75.8073 177.38 76.3802 176.984 76.8594 176.484C77.349 175.974 77.7292 175.385 78 174.719C78.2812 174.042 78.4219 173.328 78.4219 172.578C78.4219 171.818 78.2812 171.099 78 170.422C77.7292 169.745 77.349 169.156 76.8594 168.656C76.3802 168.156 75.8073 167.76 75.1406 167.469C74.474 167.177 73.75 167.031 72.9688 167.031C72.1979 167.031 71.4792 167.177 70.8125 167.469C70.1562 167.76 69.5833 168.156 69.0938 168.656C68.6042 169.156 68.2188 169.745 67.9375 170.422C67.6562 171.099 67.5156 171.818 67.5156 172.578C67.5156 173.328 67.6562 174.042 67.9375 174.719C68.2188 175.385 68.6042 175.974 69.0938 176.484C69.5833 176.984 70.1562 177.38 70.8125 177.672C71.4792 177.964 72.1979 178.109 72.9688 178.109ZM88.9375 177.969C89.2396 177.969 89.4844 178.068 89.6719 178.266C89.8698 178.464 89.9688 178.708 89.9688 179C89.9688 179.302 89.875 179.547 89.6875 179.734C89.5 179.922 89.2552 180.016 88.9531 180.016C88.2135 180.016 87.5312 179.891 86.9062 179.641C86.2812 179.391 85.7396 179.036 85.2812 178.578C84.8229 178.109 84.4635 177.552 84.2031 176.906C83.9531 176.25 83.8281 175.521 83.8281 174.719V160.578C83.8281 160.276 83.9219 160.026 84.1094 159.828C84.3073 159.62 84.5521 159.516 84.8438 159.516C85.125 159.516 85.3698 159.62 85.5781 159.828C85.7969 160.026 85.9062 160.276 85.9062 160.578V174.688C85.9062 175.729 86.1719 176.536 86.7031 177.109C87.2448 177.682 87.9896 177.969 88.9375 177.969ZM98.7344 176.312C98.6823 176.208 98.6458 176.115 98.625 176.031C98.6146 175.938 98.6094 175.849 98.6094 175.766C98.6094 175.464 98.7135 175.219 98.9219 175.031C99.1302 174.844 99.3542 174.75 99.5938 174.75C99.9375 174.75 100.266 174.964 100.578 175.391C100.797 175.807 101.073 176.188 101.406 176.531C101.75 176.865 102.135 177.151 102.562 177.391C103 177.62 103.469 177.802 103.969 177.938C104.469 178.062 104.995 178.125 105.547 178.125C106.109 178.125 106.667 178.042 107.219 177.875C107.781 177.698 108.281 177.443 108.719 177.109C109.167 176.776 109.526 176.359 109.797 175.859C110.078 175.359 110.219 174.781 110.219 174.125C110.219 173.531 110.078 173.031 109.797 172.625C109.526 172.219 109.161 171.875 108.703 171.594C108.255 171.302 107.745 171.057 107.172 170.859C106.609 170.651 106.036 170.453 105.453 170.266C104.672 170.089 103.906 169.859 103.156 169.578C102.406 169.297 101.734 168.938 101.141 168.5C100.557 168.062 100.083 167.542 99.7188 166.938C99.3646 166.323 99.1875 165.604 99.1875 164.781C99.1875 163.938 99.3698 163.182 99.7344 162.516C100.099 161.849 100.578 161.281 101.172 160.812C101.766 160.344 102.432 159.984 103.172 159.734C103.922 159.484 104.682 159.359 105.453 159.359C106.078 159.359 106.682 159.427 107.266 159.562C107.859 159.688 108.411 159.875 108.922 160.125C109.432 160.375 109.896 160.688 110.312 161.062C110.729 161.427 111.078 161.854 111.359 162.344C111.432 162.458 111.469 162.594 111.469 162.75C111.469 163.021 111.37 163.25 111.172 163.438C110.984 163.615 110.76 163.703 110.5 163.703C110.396 163.703 110.286 163.688 110.172 163.656C110.068 163.615 109.958 163.552 109.844 163.469C109.229 162.719 108.573 162.193 107.875 161.891C107.177 161.589 106.38 161.438 105.484 161.438C104.984 161.438 104.484 161.51 103.984 161.656C103.484 161.802 103.031 162.016 102.625 162.297C102.229 162.578 101.906 162.932 101.656 163.359C101.406 163.776 101.281 164.266 101.281 164.828C101.281 165.391 101.432 165.859 101.734 166.234C102.047 166.609 102.438 166.927 102.906 167.188C103.375 167.448 103.891 167.661 104.453 167.828C105.016 167.984 105.552 168.13 106.062 168.266C106.854 168.516 107.62 168.797 108.359 169.109C109.109 169.411 109.771 169.786 110.344 170.234C110.927 170.672 111.396 171.203 111.75 171.828C112.104 172.443 112.281 173.182 112.281 174.047C112.281 174.974 112.094 175.818 111.719 176.578C111.354 177.328 110.859 177.974 110.234 178.516C109.609 179.047 108.885 179.464 108.062 179.766C107.24 180.057 106.375 180.203 105.469 180.203C104.708 180.203 103.974 180.104 103.266 179.906C102.557 179.708 101.906 179.432 101.312 179.078C100.719 178.724 100.198 178.312 99.75 177.844C99.3125 177.375 98.974 176.865 98.7344 176.312ZM114.734 161.484C114.734 161.193 114.839 160.943 115.047 160.734C115.255 160.526 115.5 160.422 115.781 160.422C116.073 160.422 116.323 160.526 116.531 160.734C116.75 160.932 116.859 161.182 116.859 161.484V165.062H123.75C124.042 165.062 124.292 165.167 124.5 165.375C124.708 165.583 124.812 165.833 124.812 166.125C124.812 166.396 124.708 166.63 124.5 166.828C124.302 167.026 124.052 167.125 123.75 167.125H116.859V172.734C116.859 173.495 117 174.203 117.281 174.859C117.573 175.516 117.969 176.089 118.469 176.578C118.969 177.057 119.552 177.438 120.219 177.719C120.896 177.99 121.625 178.125 122.406 178.125C123.094 178.125 123.734 178.021 124.328 177.812C124.922 177.604 125.484 177.266 126.016 176.797C126.13 176.703 126.25 176.625 126.375 176.562C126.5 176.49 126.651 176.453 126.828 176.453C127.068 176.453 127.281 176.552 127.469 176.75C127.656 176.938 127.75 177.167 127.75 177.438C127.75 177.594 127.714 177.75 127.641 177.906C127.578 178.062 127.484 178.198 127.359 178.312C126.703 178.938 125.953 179.411 125.109 179.734C124.276 180.047 123.375 180.203 122.406 180.203C121.344 180.203 120.344 180.016 119.406 179.641C118.479 179.255 117.667 178.729 116.969 178.062C116.281 177.385 115.734 176.594 115.328 175.688C114.932 174.771 114.734 173.781 114.734 172.719V161.484ZM136.219 180.188C135.167 180.188 134.182 179.99 133.266 179.594C132.349 179.188 131.552 178.641 130.875 177.953C130.198 177.266 129.661 176.464 129.266 175.547C128.87 174.62 128.672 173.63 128.672 172.578C128.672 171.516 128.87 170.521 129.266 169.594C129.661 168.667 130.198 167.859 130.875 167.172C131.552 166.474 132.349 165.927 133.266 165.531C134.182 165.125 135.167 164.922 136.219 164.922C137.281 164.922 138.271 165.125 139.188 165.531C140.104 165.927 140.901 166.469 141.578 167.156C142.255 167.844 142.786 168.656 143.172 169.594C143.568 170.521 143.766 171.516 143.766 172.578V179C143.766 179.302 143.661 179.557 143.453 179.766C143.245 179.974 142.99 180.078 142.688 180.078C142.375 180.078 142.125 179.974 141.938 179.766C141.76 179.557 141.672 179.302 141.672 179L141.656 177.875C140.969 178.594 140.161 179.161 139.234 179.578C138.318 179.984 137.312 180.188 136.219 180.188ZM136.219 178.109C137 178.109 137.724 177.964 138.391 177.672C139.057 177.38 139.63 176.984 140.109 176.484C140.599 175.974 140.979 175.385 141.25 174.719C141.531 174.042 141.672 173.328 141.672 172.578C141.672 171.818 141.531 171.099 141.25 170.422C140.979 169.745 140.599 169.156 140.109 168.656C139.63 168.156 139.057 167.76 138.391 167.469C137.724 167.177 137 167.031 136.219 167.031C135.448 167.031 134.729 167.177 134.062 167.469C133.406 167.76 132.833 168.156 132.344 168.656C131.854 169.156 131.469 169.745 131.188 170.422C130.906 171.099 130.766 171.818 130.766 172.578C130.766 173.328 130.906 174.042 131.188 174.719C131.469 175.385 131.854 175.974 132.344 176.484C132.833 176.984 133.406 177.38 134.062 177.672C134.729 177.964 135.448 178.109 136.219 178.109ZM146.641 161.484C146.641 161.193 146.745 160.943 146.953 160.734C147.161 160.526 147.406 160.422 147.688 160.422C147.979 160.422 148.229 160.526 148.438 160.734C148.656 160.932 148.766 161.182 148.766 161.484V165.062H155.656C155.948 165.062 156.198 165.167 156.406 165.375C156.615 165.583 156.719 165.833 156.719 166.125C156.719 166.396 156.615 166.63 156.406 166.828C156.208 167.026 155.958 167.125 155.656 167.125H148.766V172.734C148.766 173.495 148.906 174.203 149.188 174.859C149.479 175.516 149.875 176.089 150.375 176.578C150.875 177.057 151.458 177.438 152.125 177.719C152.802 177.99 153.531 178.125 154.312 178.125C155 178.125 155.641 178.021 156.234 177.812C156.828 177.604 157.391 177.266 157.922 176.797C158.036 176.703 158.156 176.625 158.281 176.562C158.406 176.49 158.557 176.453 158.734 176.453C158.974 176.453 159.188 176.552 159.375 176.75C159.562 176.938 159.656 177.167 159.656 177.438C159.656 177.594 159.62 177.75 159.547 177.906C159.484 178.062 159.391 178.198 159.266 178.312C158.609 178.938 157.859 179.411 157.016 179.734C156.182 180.047 155.281 180.203 154.312 180.203C153.25 180.203 152.25 180.016 151.312 179.641C150.385 179.255 149.573 178.729 148.875 178.062C148.188 177.385 147.641 176.594 147.234 175.688C146.839 174.771 146.641 173.781 146.641 172.719V161.484ZM161.406 161.547C161.406 161.193 161.526 160.896 161.766 160.656C162.005 160.417 162.302 160.297 162.656 160.297C163.01 160.297 163.307 160.417 163.547 160.656C163.797 160.896 163.922 161.193 163.922 161.547C163.922 161.891 163.797 162.188 163.547 162.438C163.307 162.677 163.01 162.797 162.656 162.797C162.302 162.797 162.005 162.677 161.766 162.438C161.526 162.188 161.406 161.891 161.406 161.547ZM161.594 165.984C161.594 165.682 161.698 165.432 161.906 165.234C162.115 165.026 162.365 164.922 162.656 164.922C162.958 164.922 163.203 165.026 163.391 165.234C163.589 165.432 163.688 165.682 163.688 165.984V179.031C163.688 179.323 163.583 179.573 163.375 179.781C163.177 179.979 162.938 180.078 162.656 180.078C162.365 180.078 162.115 179.979 161.906 179.781C161.698 179.573 161.594 179.323 161.594 179.031V165.984ZM168.078 172.578C168.078 173.328 168.224 174.042 168.516 174.719C168.807 175.385 169.203 175.974 169.703 176.484C170.203 176.984 170.786 177.38 171.453 177.672C172.13 177.964 172.854 178.109 173.625 178.109C174.406 178.109 175.135 177.964 175.812 177.672C176.49 177.38 177.073 176.984 177.562 176.484C178.062 175.974 178.453 175.385 178.734 174.719C179.026 174.042 179.172 173.328 179.172 172.578C179.172 171.818 179.026 171.099 178.734 170.422C178.453 169.745 178.062 169.156 177.562 168.656C177.073 168.156 176.49 167.76 175.812 167.469C175.135 167.177 174.406 167.031 173.625 167.031C172.854 167.031 172.13 167.177 171.453 167.469C170.786 167.76 170.203 168.156 169.703 168.656C169.203 169.156 168.807 169.745 168.516 170.422C168.224 171.099 168.078 171.818 168.078 172.578ZM166 172.578C166 171.516 166.198 170.521 166.594 169.594C167 168.656 167.547 167.844 168.234 167.156C168.932 166.469 169.74 165.927 170.656 165.531C171.583 165.125 172.573 164.922 173.625 164.922C174.688 164.922 175.682 165.125 176.609 165.531C177.536 165.927 178.344 166.474 179.031 167.172C179.719 167.859 180.26 168.667 180.656 169.594C181.052 170.521 181.25 171.516 181.25 172.578C181.25 173.63 181.052 174.62 180.656 175.547C180.26 176.464 179.719 177.266 179.031 177.953C178.344 178.641 177.536 179.188 176.609 179.594C175.682 179.99 174.688 180.188 173.625 180.188C172.573 180.188 171.583 179.99 170.656 179.594C169.74 179.188 168.932 178.641 168.234 177.953C167.547 177.266 167 176.464 166.594 175.547C166.198 174.62 166 173.63 166 172.578ZM183.125 172.25C183.125 171.24 183.302 170.292 183.656 169.406C184.021 168.51 184.521 167.734 185.156 167.078C185.792 166.411 186.542 165.885 187.406 165.5C188.271 165.115 189.208 164.922 190.219 164.922C191.229 164.922 192.161 165.115 193.016 165.5C193.88 165.875 194.625 166.396 195.25 167.062C195.885 167.719 196.38 168.495 196.734 169.391C197.089 170.276 197.266 171.224 197.266 172.234V178.969C197.266 179.271 197.167 179.521 196.969 179.719C196.781 179.906 196.536 180 196.234 180C195.943 180 195.693 179.906 195.484 179.719C195.286 179.521 195.188 179.271 195.188 178.969V172.312C195.188 171.583 195.062 170.901 194.812 170.266C194.573 169.62 194.229 169.057 193.781 168.578C193.344 168.099 192.818 167.724 192.203 167.453C191.599 167.172 190.938 167.031 190.219 167.031C189.5 167.031 188.833 167.167 188.219 167.438C187.615 167.708 187.089 168.078 186.641 168.547C186.193 169.016 185.844 169.573 185.594 170.219C185.344 170.854 185.219 171.536 185.219 172.266V178.969C185.219 179.271 185.125 179.521 184.938 179.719C184.75 179.906 184.505 180 184.203 180C183.922 180 183.672 179.906 183.453 179.719C183.234 179.521 183.125 179.271 183.125 178.969V172.25Z" fill="#FBFBFB"/>
<path d="M87.4115 54.3297C87.4115 54.3297 87.2339 37.5123 96.4741 30.1827C96.6084 30.0705 96.7745 30.0035 96.949 29.9913C97.1234 29.979 97.2973 30.022 97.446 30.1142C97.5946 30.2064 97.7105 30.3432 97.7771 30.505C97.8437 30.6669 97.8577 30.8456 97.8171 31.0159C96.2854 37.6984 91.7708 58.5125 93.3774 65.1978L87.4115 54.3297Z" fill="#FBFBFB"/>
<path d="M48.5945 71.6581C48.5945 71.6581 50.831 68.6029 52.3655 69.5167C53.517 69.9305 51.7384 74.8244 51.5996 79.7932C51.4609 84.7621 52.3905 90.9391 49.0468 92.9389C45.7031 94.9386 44.5738 94.5581 37.7033 90.5142C31.3822 86.7924 8.58427 73.294 0.243141 70.9138C0.169453 70.8951 0.104736 70.851 0.0604326 70.7892C0.0161325 70.7274 -0.00489414 70.6519 0.0010873 70.576C0.00706873 70.5002 0.0396768 70.4289 0.0931207 70.3748C0.146565 70.3208 0.217388 70.2873 0.293087 70.2805C5.45981 69.725 21.182 69.3501 42.4705 83.2845C42.4677 83.2845 44.3684 76.0437 48.5945 71.6581Z" fill="#FBFBFB"/>
<path d="M102.454 95.3275C107.361 95.3275 112.158 96.784 116.239 99.513C120.319 102.242 123.499 106.121 125.377 110.659C127.255 115.197 127.747 120.191 126.789 125.009C125.832 129.826 123.469 134.252 119.999 137.725C116.529 141.198 112.107 143.564 107.294 144.522C102.481 145.48 97.4922 144.988 92.9583 143.109C88.4244 141.229 84.5492 138.046 81.8228 133.961C79.0963 129.877 77.6411 125.075 77.6411 120.163C77.6419 113.577 80.2563 107.26 84.9093 102.603C89.5624 97.9451 95.8732 95.3282 102.454 95.3275ZM102.454 139.603C106.295 139.603 110.051 138.462 113.245 136.326C116.439 134.19 118.929 131.153 120.399 127.601C121.869 124.048 122.254 120.139 121.504 116.368C120.755 112.596 118.905 109.132 116.188 106.413C113.472 103.694 110.011 101.842 106.243 101.092C102.475 100.342 98.5697 100.727 95.0205 102.198C91.4712 103.67 88.4376 106.162 86.3033 109.359C84.169 112.556 83.0298 116.315 83.0298 120.161C83.0298 125.317 85.0763 130.262 88.7189 133.908C92.3616 137.554 97.3021 139.603 102.454 139.603Z" fill="#FBFBFB"/>
<path d="M23.4931 90.492C24.5198 90.4031 26.2096 90.3836 28.9928 90.5586C36.1768 91.0086 41.4962 100.355 46.6129 100.188C53.2254 99.9741 63.7142 94.9636 62.2408 82.0485C61.1586 72.5858 59.7628 71.3998 53.9413 67.4253C46.9709 62.6676 44.5402 60.1651 38.2357 66.681C30.4968 74.6744 25.1497 68.8474 23.8871 67.492C23.8417 67.4425 23.8083 67.3832 23.7895 67.3187C23.7708 67.2542 23.7672 67.1862 23.779 67.1201C23.7908 67.0539 23.8177 66.9914 23.8577 66.9374C23.8976 66.8834 23.9495 66.8394 24.0092 66.8087C25.305 66.1173 26.552 65.3378 27.7413 64.4757C33.9625 60.3262 35.4498 55.224 41.4074 51.2495C47.3649 47.275 68.8088 63.6786 70.0824 62.3398C72.2301 60.079 68.781 57.2155 68.3482 56.8683C68.316 56.8444 68.2863 56.8174 68.2594 56.7877C67.5018 55.9823 57.2211 44.7975 51.6742 25.7832C50.4311 21.5254 50.1259 11.9099 50.6087 7.2049C51.0693 2.69433 53.0117 0.872335 54.2687 0.130759C54.3992 0.0515512 54.5477 0.00680851 54.7002 0.000722164C54.8528 -0.00536418 55.0044 0.027405 55.1408 0.0959598C55.2772 0.164515 55.394 0.266611 55.4803 0.392685C55.5665 0.518758 55.6194 0.664682 55.6339 0.816786C58.1312 28.5023 72.9349 49.8913 74.2058 51.1523C74.7413 51.6828 75.1437 51.6856 75.4295 51.5078C75.5328 51.4385 75.6197 51.3473 75.6838 51.2406C75.7479 51.1339 75.7877 51.0144 75.8004 50.8906C75.8131 50.7668 75.7984 50.6416 75.7574 50.5241C75.7163 50.4066 75.6498 50.2996 75.5627 50.2108C71.5531 45.9641 70.013 39.0427 68.6534 25.0027C67.5906 13.9707 71.8084 7.88259 73.8201 6.99936C73.9387 6.94838 74.0679 6.92703 74.1966 6.93713C74.3253 6.94724 74.4496 6.98851 74.5588 7.05738C74.668 7.12625 74.7589 7.22066 74.8236 7.33248C74.8882 7.4443 74.9248 7.57018 74.93 7.69928C75.0993 11.9154 75.9123 28.1996 78.7815 40.1953C82.1113 54.0825 92.9054 70.0056 104.418 88.0867C105.983 90.5447 111.766 100.802 115.881 107.676L115.898 107.707C118.224 110.993 119.465 114.925 119.447 118.952C119.447 129.118 111.827 137.361 102.423 137.361C96.4488 137.361 91.1989 134.028 88.1604 128.993C85.4272 125.899 81.7783 123.124 76.8835 121.033C53.0228 110.82 39.2486 117.486 36.0436 107.015C33.5158 98.7687 26.2124 93.5499 23.2184 91.7057C23.1005 91.6345 23.008 91.528 22.954 91.4012C22.9001 91.2745 22.8874 91.1339 22.9178 90.9995C22.9483 90.8651 23.0202 90.7438 23.1235 90.6526C23.2267 90.5615 23.3561 90.5053 23.4931 90.492Z" fill="#FBFBFB"/>
</svg>
