<svg width="47" height="14" viewBox="0 0 47 14" fill="none" xmlns="http://www.w3.org/2000/svg">
<path d="M1.646 8.70992H4.936V9.99792H0.05V0.267924H1.646V8.70992ZM9.6167 10.1239C8.8887 10.1239 8.2307 9.96059 7.6427 9.63392C7.0547 9.29792 6.5927 8.83126 6.2567 8.23392C5.9207 7.62726 5.7527 6.92726 5.7527 6.13392C5.7527 5.34992 5.92537 4.65459 6.2707 4.04792C6.61604 3.44126 7.08737 2.97459 7.6847 2.64792C8.28204 2.32126 8.94937 2.15792 9.6867 2.15792C10.424 2.15792 11.0914 2.32126 11.6887 2.64792C12.286 2.97459 12.7574 3.44126 13.1027 4.04792C13.448 4.65459 13.6207 5.34992 13.6207 6.13392C13.6207 6.91792 13.4434 7.61326 13.0887 8.21992C12.734 8.82659 12.2487 9.29792 11.6327 9.63392C11.026 9.96059 10.354 10.1239 9.6167 10.1239ZM9.6167 8.73792C10.0274 8.73792 10.41 8.63992 10.7647 8.44392C11.1287 8.24792 11.4227 7.95392 11.6467 7.56192C11.8707 7.16992 11.9827 6.69392 11.9827 6.13392C11.9827 5.57392 11.8754 5.10259 11.6607 4.71992C11.446 4.32792 11.1614 4.03392 10.8067 3.83792C10.452 3.64192 10.0694 3.54392 9.6587 3.54392C9.24804 3.54392 8.86537 3.64192 8.5107 3.83792C8.16537 4.03392 7.89004 4.32792 7.6847 4.71992C7.47937 5.10259 7.3767 5.57392 7.3767 6.13392C7.3767 6.96459 7.5867 7.60859 8.0067 8.06592C8.43604 8.51392 8.9727 8.73792 9.6167 8.73792ZM18.3064 2.15792C18.9038 2.15792 19.4311 2.27926 19.8884 2.52192C20.3551 2.75526 20.7191 3.04926 20.9804 3.40392V2.28392H22.5904V10.1239C22.5904 10.8333 22.4411 11.4633 22.1424 12.0139C21.8438 12.5739 21.4098 13.0126 20.8404 13.3299C20.2804 13.6473 19.6084 13.8059 18.8244 13.8059C17.7791 13.8059 16.9111 13.5586 16.2204 13.0639C15.5298 12.5786 15.1378 11.9159 15.0444 11.0759H16.6264C16.7478 11.4773 17.0044 11.7993 17.3964 12.0419C17.7978 12.2939 18.2738 12.4199 18.8244 12.4199C19.4684 12.4199 19.9864 12.2239 20.3784 11.8319C20.7798 11.4399 20.9804 10.8706 20.9804 10.1239V8.83592C20.7098 9.19992 20.3411 9.50792 19.8744 9.75992C19.4171 10.0026 18.8944 10.1239 18.3064 10.1239C17.6344 10.1239 17.0184 9.95592 16.4584 9.61992C15.9078 9.27459 15.4691 8.79859 15.1424 8.19192C14.8251 7.57592 14.6664 6.88059 14.6664 6.10592C14.6664 5.33126 14.8251 4.64526 15.1424 4.04792C15.4691 3.45059 15.9078 2.98859 16.4584 2.66192C17.0184 2.32592 17.6344 2.15792 18.3064 2.15792ZM20.9804 6.13392C20.9804 5.60192 20.8684 5.13992 20.6444 4.74792C20.4298 4.35592 20.1451 4.05726 19.7904 3.85192C19.4358 3.64659 19.0531 3.54392 18.6424 3.54392C18.2318 3.54392 17.8491 3.64659 17.4944 3.85192C17.1398 4.04792 16.8504 4.34192 16.6264 4.73392C16.4118 5.11659 16.3044 5.57392 16.3044 6.10592C16.3044 6.63792 16.4118 7.10459 16.6264 7.50592C16.8504 7.90726 17.1398 8.21526 17.4944 8.42992C17.8584 8.63526 18.2411 8.73792 18.6424 8.73792C19.0531 8.73792 19.4358 8.63526 19.7904 8.42992C20.1451 8.22459 20.4298 7.92592 20.6444 7.53392C20.8684 7.13259 20.9804 6.66592 20.9804 6.13392ZM28.0327 10.1239C27.3047 10.1239 26.6467 9.96059 26.0587 9.63392C25.4707 9.29792 25.0087 8.83126 24.6727 8.23392C24.3367 7.62726 24.1687 6.92726 24.1687 6.13392C24.1687 5.34992 24.3414 4.65459 24.6867 4.04792C25.0321 3.44126 25.5034 2.97459 26.1007 2.64792C26.6981 2.32126 27.3654 2.15792 28.1027 2.15792C28.8401 2.15792 29.5074 2.32126 30.1047 2.64792C30.7021 2.97459 31.1734 3.44126 31.5187 4.04792C31.8641 4.65459 32.0367 5.34992 32.0367 6.13392C32.0367 6.91792 31.8594 7.61326 31.5047 8.21992C31.1501 8.82659 30.6647 9.29792 30.0487 9.63392C29.4421 9.96059 28.7701 10.1239 28.0327 10.1239ZM28.0327 8.73792C28.4434 8.73792 28.8261 8.63992 29.1807 8.44392C29.5447 8.24792 29.8387 7.95392 30.0627 7.56192C30.2867 7.16992 30.3987 6.69392 30.3987 6.13392C30.3987 5.57392 30.2914 5.10259 30.0767 4.71992C29.8621 4.32792 29.5774 4.03392 29.2227 3.83792C28.8681 3.64192 28.4854 3.54392 28.0747 3.54392C27.6641 3.54392 27.2814 3.64192 26.9267 3.83792C26.5814 4.03392 26.3061 4.32792 26.1007 4.71992C25.8954 5.10259 25.7927 5.57392 25.7927 6.13392C25.7927 6.96459 26.0027 7.60859 26.4227 8.06592C26.8521 8.51392 27.3887 8.73792 28.0327 8.73792ZM40.6005 2.28392V9.99792H39.0045V9.08792C38.7525 9.40526 38.4211 9.65726 38.0105 9.84392C37.6091 10.0213 37.1798 10.1099 36.7225 10.1099C36.1158 10.1099 35.5698 9.98392 35.0845 9.73192C34.6085 9.47992 34.2305 9.10659 33.9505 8.61192C33.6798 8.11726 33.5445 7.51992 33.5445 6.81992V2.28392H35.1265V6.58192C35.1265 7.27259 35.2991 7.80459 35.6445 8.17792C35.9898 8.54192 36.4611 8.72392 37.0585 8.72392C37.6558 8.72392 38.1271 8.54192 38.4725 8.17792C38.8271 7.80459 39.0045 7.27259 39.0045 6.58192V2.28392H40.6005ZM44.5683 3.58592V7.85592C44.5683 8.14526 44.6336 8.35526 44.7643 8.48592C44.9043 8.60726 45.1376 8.66792 45.4643 8.66792H46.4443V9.99792H45.1843C44.4656 9.99792 43.9149 9.82992 43.5323 9.49392C43.1496 9.15792 42.9583 8.61192 42.9583 7.85592V3.58592H42.0483V2.28392H42.9583V0.365924H44.5683V2.28392H46.4443V3.58592H44.5683Z" fill="white"/>
</svg>
