<?xml version="1.0" encoding="UTF-8"?>
<svg id="Copy" xmlns="http://www.w3.org/2000/svg" viewBox="0 0 1080 1080">
  <defs>
    <style>
      .cls-1 {
        fill: #ff8000;
      }

      .cls-1, .cls-2 {
        stroke-width: 0px;
      }

      .cls-2 {
        fill: #052f3d;
      }
    </style>
  </defs>
  <path class="cls-1" d="m823.2,539.96c0,13.29-.94,26.35-2.58,39.1-19.24,150.07-147.72,266.43-302.95,266.43-93.29,0-176.97-42.07-233.04-108.23l59.67-50.44c41.68,49.19,104.01,80.47,173.37,80.47,111.98,0,205.36-81.41,223.97-188.23H214.64c-1.64-12.75-2.42-25.81-2.42-39.1s.78-26.28,2.42-39.1c19.24-149.99,147.88-266.35,303.03-266.35,93.37,0,177.05,42.07,233.04,108.23l-59.67,50.52c-41.68-49.27-103.93-80.55-173.37-80.55-111.98,0-205.36,81.41-223.89,188.15h526.84c1.64,12.83,2.58,25.88,2.58,39.1Z"/>
  <path class="cls-2" d="m1049.18,497.24h-172.06c1.8,14.01,2.82,28.28,2.82,42.72s-1.03,28.79-2.82,42.72h85.35v.09c-21.44,214.18-202.73,381.89-422.47,381.89-127.81,0-242.54-56.73-320.46-146.35-64.84-74.58-104.23-171.89-104.23-278.26,0-234.17,190.52-424.69,424.69-424.69,131.65,0,249.46,60.23,327.38,154.63l65.27-55.19c-93.63-112.86-234.94-184.88-392.65-184.88C258.75,29.92,29.88,258.8,29.88,540.04c0,127.38,46.9,244,124.48,333.44,93.55,108.07,231.69,176.59,385.65,176.59,266.89,0,486.54-205.98,508.24-467.32v-.09c.94-10.51,1.45-21.19,1.71-31.87.17-3.59.17-7.18.17-10.85,0-14.35-.34-28.62-.94-42.72Z"/>
</svg>