<svg width="23" height="23" viewBox="0 0 23 23" fill="none" xmlns="http://www.w3.org/2000/svg">
<path d="M8.76725 7.17627C8.23059 7.17627 7.80892 7.60752 7.80892 8.1346C7.80892 8.66169 8.24017 9.09294 8.76725 9.09294C9.29434 9.09294 9.72555 8.66169 9.72555 8.1346C9.72555 7.60752 9.29434 7.17627 8.76725 7.17627Z" fill="#857D7D"/>
<path d="M20.5658 4.82996C19.7608 2.96121 17.9879 1.91663 15.5154 1.91663H7.48458C4.40833 1.91663 1.91666 4.40829 1.91666 7.48454V15.5154C1.91666 17.9879 2.96125 19.7608 4.83 20.5658C5.01208 20.6425 5.22291 20.5945 5.35708 20.4604L20.4604 5.35704C20.6042 5.21329 20.6521 5.00246 20.5658 4.82996ZM10.0912 11.73C9.71749 12.0941 9.22874 12.2666 8.73999 12.2666C8.25125 12.2666 7.7625 12.0845 7.38875 11.73C6.41125 10.81 5.33791 9.34371 5.75 7.59954C6.11416 6.01829 7.51333 5.30912 8.73999 5.30912C9.96666 5.30912 11.3658 6.01829 11.73 7.60912C12.1325 9.34371 11.0592 10.81 10.0912 11.73Z" fill="#857D7D"/>
<path d="M18.6577 19.6741C18.8685 19.885 18.8398 20.23 18.581 20.3737C17.7377 20.8433 16.7123 21.0829 15.5144 21.0829H7.48355C7.20563 21.0829 7.09063 20.757 7.2823 20.5654L13.0706 14.7771C13.2623 14.5854 13.5594 14.5854 13.751 14.7771L18.6577 19.6741Z" fill="#857D7D"/>
<path d="M21.085 7.48355V15.5144C21.085 16.7123 20.8454 17.7473 20.3758 18.581C20.232 18.8398 19.8871 18.8589 19.6762 18.6577L14.7696 13.751C14.5779 13.5594 14.5779 13.2623 14.7696 13.0706L20.5579 7.2823C20.7591 7.09063 21.085 7.20563 21.085 7.48355Z" fill="#857D7D"/>
</svg>
