<svg width="16" height="16" viewBox="0 0 16 16" fill="none" xmlns="http://www.w3.org/2000/svg">
<g clip-path="url(#clip0_125_212)">
<path fill-rule="evenodd" clip-rule="evenodd" d="M13.475 2.5H2.27501C1.97501 2.5 1.75001 3 1.75001 3C1.75001 3 0.100007 6.475 0.350007 6.525C0.650007 7.25 1.42501 7.775 2.30001 7.775C3.17501 7.775 3.87501 7.25 4.20001 6.525C4.52501 7.25 5.22501 7.775 6.10001 7.775C6.97501 7.775 7.70001 7.25 8.02501 6.525C8.32501 7.25 9.05001 7.775 9.95001 7.775C10.825 7.775 11.525 7.25 11.85 6.525C12.15 7.25 12.875 7.775 13.75 7.775C14.65 7.775 15.4 7.25 15.7 6.525C15.925 6.475 14.025 3 14.025 3C14.025 3 13.775 2.5 13.475 2.5Z" stroke="#808184"/>
<path d="M14.225 7.77502V13C14.225 13.275 14 13.5 13.725 13.5H2.25C1.975 13.5 1.75 13.275 1.75 13V7.77502" stroke="#808184"/>
<path d="M8.975 8.75H2.75V11.975H8.975V8.75Z" stroke="#808184"/>
<path d="M13.225 8.5H10V13.475H13.225V8.5Z" stroke="#808184"/>
<path d="M4.17499 6.525L5.02499 2.5" stroke="#808184"/>
<path d="M7.97504 6.525V2.5" stroke="#808184"/>
<path d="M11.825 6.49995L10.675 2.57495" stroke="#808184"/>
<path d="M4.77502 8.77502V12" stroke="#808184"/>
<path d="M7 8.77502V12" stroke="#808184"/>
</g>
<defs>
<clipPath id="clip0_125_212">
<rect width="16" height="16" fill="white"/>
</clipPath>
</defs>
</svg>
