<svg width="21" height="23" viewBox="0 0 21 23" fill="none" xmlns="http://www.w3.org/2000/svg">
<path d="M10.495 0.528759C8.90697 0.528759 7.05106 0.991143 5.53317 2.19334C4.01528 3.39554 2.90556 5.38219 2.90556 8.12779C2.90556 11.0328 4.72958 13.8645 6.4675 16.0361C8.20543 18.2109 9.94335 19.732 9.94335 19.732C10.2622 20.0126 10.7374 20.0126 11.0563 19.732C11.0563 19.732 12.7942 18.2109 14.5321 16.0361C16.27 13.8645 18.0941 11.0328 18.0941 8.12779C18.0941 5.379 16.9843 3.39554 15.4664 2.19334C13.9485 0.991143 12.0831 0.528759 10.495 0.528759ZM10.495 2.21885C11.7546 2.21885 13.2757 2.6047 14.4173 3.51352C15.5653 4.41916 16.4071 5.81269 16.4071 8.12779C16.4071 10.2835 14.8829 12.9557 13.2183 14.9774C11.8056 16.693 11.1487 17.2957 10.5014 17.9431C9.89552 17.3181 9.12063 16.6293 7.78131 14.9774C6.12948 12.943 4.59246 10.2835 4.59246 8.12779C4.59246 5.81269 5.43431 4.41916 6.57911 3.51352C7.7271 2.6047 9.23861 2.21566 10.495 2.21566V2.21885ZM10.495 3.9217C8.17673 3.9217 6.27936 5.82544 6.27936 8.14692C6.27936 10.4652 8.17673 12.3626 10.495 12.3626C12.8165 12.3626 14.7202 10.4652 14.7202 8.14692C14.716 7.02762 14.2695 5.95535 13.4781 5.16388C12.6866 4.3724 11.6143 3.9259 10.495 3.9217ZM10.495 5.61179C11.9045 5.61179 13.0333 6.73745 13.0333 8.14692C13.0342 8.4799 12.969 8.80974 12.8416 9.11738C12.7142 9.42501 12.5271 9.70434 12.291 9.93919C12.055 10.1741 11.7747 10.3598 11.4664 10.4857C11.1582 10.6115 10.828 10.675 10.495 10.6725C10.1629 10.6742 9.83371 10.61 9.52653 10.4837C9.21935 10.3574 8.94026 10.1714 8.7054 9.93654C8.47055 9.70168 8.28458 9.42259 8.15826 9.11541C8.03193 8.80823 7.96776 8.47906 7.96945 8.14692C7.96734 7.81422 8.03116 7.4844 8.15722 7.17649C8.28328 6.86859 8.46907 6.58871 8.70389 6.353C8.93871 6.1173 9.21788 5.93044 9.52531 5.80322C9.83273 5.676 10.1623 5.61094 10.495 5.61179ZM6.26023 17.6051C6.24204 17.6076 6.22396 17.6108 6.20602 17.6146C4.37562 17.8028 2.98847 18.077 2.05094 18.4852C1.58218 18.6893 1.15806 18.887 0.902956 19.4386C0.77443 19.7413 0.768712 20.0821 0.887012 20.3889C1.005 20.6791 1.20271 20.8736 1.40361 21.0267C2.2072 21.6326 3.35837 21.8717 4.92729 22.1045C6.4962 22.3373 8.43183 22.4712 10.495 22.4712C12.5614 22.4712 14.4938 22.3373 16.0628 22.1045C17.6349 21.8717 18.7892 21.6326 19.596 21.0267C19.8233 20.868 20.0021 20.6495 20.1126 20.3953C20.2296 20.0858 20.2227 19.7432 20.0935 19.4386C19.8384 18.8838 19.4174 18.6893 18.9455 18.482C18.0111 18.077 16.6304 17.8028 14.8 17.6146C13.7253 17.5253 13.467 19.0974 14.6246 19.2951C16.0883 19.445 17.316 19.6842 18.0239 19.9329C17.5328 20.1115 16.8121 20.2869 15.814 20.4336C14.3535 20.6504 12.4881 20.7843 10.495 20.7843C8.50518 20.7843 6.6397 20.6504 5.17921 20.4336C4.42626 20.3389 3.68411 20.1724 2.96295 19.9361C4.07673 19.6119 5.21951 19.3972 6.37502 19.2951C7.47518 19.1293 7.3253 17.6146 6.26023 17.6051Z" fill="white"/>
</svg>
