<svg width="20" height="20" viewBox="0 0 20 20" fill="none" xmlns="http://www.w3.org/2000/svg">
<path d="M13.6978 5.61929C13.6978 6.68016 13.2764 7.69757 12.5263 8.44772C11.7761 9.19787 10.7587 9.61929 9.69783 9.61929C8.63696 9.61929 7.61955 9.19787 6.8694 8.44772C6.11926 7.69757 5.69783 6.68016 5.69783 5.61929M1.33105 5.02068L0.631049 13.4207C0.480672 15.2252 0.405483 16.1275 0.710515 16.8235C0.978516 17.435 1.44286 17.9397 2.03002 18.2575C2.6983 18.6193 3.60369 18.6193 5.41447 18.6193H13.9812C15.792 18.6193 16.6974 18.6193 17.3656 18.2575C17.9528 17.9397 18.4171 17.435 18.6851 16.8235C18.9902 16.1275 18.915 15.2252 18.7646 13.4207L18.0646 5.02068C17.9352 3.46804 17.8705 2.69173 17.5267 2.10415C17.2239 1.58673 16.7731 1.1719 16.2323 0.913139C15.6182 0.619294 14.8392 0.619294 13.2812 0.619294L6.11447 0.619293C4.55645 0.619293 3.77745 0.619293 3.16335 0.913137C2.62257 1.17189 2.17173 1.58673 1.86896 2.10415C1.52513 2.69173 1.46043 3.46804 1.33105 5.02068Z" stroke="white" stroke-linecap="round" stroke-linejoin="round"/>
</svg>
