<svg width="19" height="22" viewBox="0 0 19 22" fill="none" xmlns="http://www.w3.org/2000/svg">
<path d="M11.8606 16.9889C12.2894 18.5893 11.3397 20.2343 9.73927 20.6631C8.13887 21.092 6.49386 20.1422 6.06504 18.5418M8.36112 4.71497C8.66533 4.16767 8.76554 3.50617 8.59068 2.85357C8.23332 1.51991 6.86248 0.728451 5.52882 1.08581C4.19515 1.44316 3.40369 2.814 3.76105 4.14767C3.93591 4.80027 4.35344 5.32304 4.89055 5.64491M13.7055 8.41941C13.3486 7.08728 12.3956 5.97331 11.0564 5.32258C9.71709 4.67185 8.10117 4.53765 6.56409 4.94951C5.02702 5.36137 3.69469 6.28555 2.86021 7.51873C2.02573 8.75192 1.75745 10.1931 2.1144 11.5252C2.70497 13.7293 2.59029 15.4877 2.21734 16.8238C1.79227 18.3467 1.57974 19.1081 1.63716 19.261C1.70285 19.4359 1.75037 19.4839 1.9246 19.5514C2.07689 19.6104 2.71666 19.439 3.99621 19.0962L15.8613 15.9169C17.1408 15.5741 17.7806 15.4026 17.883 15.2754C18.0001 15.1298 18.0173 15.0645 17.9867 14.8801C17.96 14.719 17.3952 14.1659 16.2656 13.0596C15.2746 12.0889 14.2961 10.6235 13.7055 8.41941Z" stroke="url(#paint0_linear_50_64)" stroke-width="2" stroke-linecap="round" stroke-linejoin="round"/>
<defs>
<linearGradient id="paint0_linear_50_64" x1="0.5" y1="2.88306" x2="38" y2="47.8831" gradientUnits="userSpaceOnUse">
<stop stop-color="#2FDAD0"/>
<stop offset="1" stop-color="#8C3ACA"/>
</linearGradient>
</defs>
</svg>
