<svg width="17" height="16" viewBox="0 0 17 16" fill="none" xmlns="http://www.w3.org/2000/svg">
<g clip-path="url(#clip0_82_1750)">
<path d="M15.0927 11.28V13.28C15.0935 13.4657 15.0555 13.6495 14.9811 13.8196C14.9067 13.9897 14.7976 14.1424 14.6608 14.2679C14.524 14.3935 14.3624 14.489 14.1866 14.5485C14.0107 14.608 13.8243 14.6301 13.6394 14.6134C11.588 14.3905 9.61739 13.6895 7.88606 12.5667C6.27528 11.5431 4.90962 10.1775 3.88606 8.5667C2.75938 6.8275 2.05822 4.84736 1.8394 2.7867C1.82274 2.60234 1.84465 2.41654 1.90373 2.24111C1.96281 2.06569 2.05778 1.90449 2.18257 1.76778C2.30737 1.63106 2.45927 1.52184 2.62859 1.44704C2.79791 1.37225 2.98096 1.33354 3.16606 1.33336H5.16606C5.4896 1.33018 5.80326 1.44475 6.04857 1.65572C6.29388 1.86669 6.45411 2.15966 6.4994 2.48003C6.58381 3.12007 6.74036 3.74851 6.96606 4.35336C7.05576 4.59198 7.07517 4.85131 7.022 5.10062C6.96883 5.34993 6.8453 5.57877 6.66606 5.76003L5.8194 6.6067C6.76843 8.27573 8.15037 9.65766 9.8194 10.6067L10.6661 9.76003C10.8473 9.58079 11.0762 9.45726 11.3255 9.40409C11.5748 9.35092 11.8341 9.37033 12.0727 9.46003C12.6776 9.68573 13.306 9.84228 13.9461 9.9267C14.2699 9.97238 14.5657 10.1355 14.7771 10.385C14.9885 10.6346 15.1008 10.9531 15.0927 11.28Z" stroke="#77B3CF" stroke-width="2" stroke-linecap="round" stroke-linejoin="round"/>
</g>
<defs>
<clipPath id="clip0_82_1750">
<rect width="16" height="16" fill="white" transform="translate(0.425781 3.05176e-05)"/>
</clipPath>
</defs>
</svg>
