<svg width="16" height="16" viewBox="0 0 16 16" fill="none" xmlns="http://www.w3.org/2000/svg">
<path d="M1.27248 13.8656L7.92399 15.9881C7.94848 15.9961 7.97448 16.0001 7.99999 16.0001C8.02648 16.0001 8.05298 15.9956 8.07849 15.9876L14.7345 13.7841C15.0475 13.6801 15.25 13.4016 15.25 13.0726C15.25 12.7436 15.048 12.4636 14.735 12.3601L10.8685 11.0801C10.7365 11.0351 10.596 11.1081 10.5525 11.2386C10.509 11.3701 10.58 11.5111 10.711 11.5546L14.5775 12.8346C14.7375 12.8876 14.75 13.0301 14.75 13.0726C14.75 13.1146 14.7375 13.2566 14.578 13.3096L7.99849 15.4876L1.42498 13.3891C1.26448 13.3381 1.25048 13.1961 1.24998 13.1536C1.24948 13.1116 1.26048 12.9696 1.41948 12.9146L5.43348 11.5381C5.56398 11.4936 5.63348 11.3511 5.58898 11.2206C5.54398 11.0896 5.40148 11.0201 5.27148 11.0651L1.25748 12.4416C0.945984 12.5486 0.746484 12.8296 0.749984 13.1586C0.753484 13.4876 0.958484 13.7651 1.27248 13.8656Z" fill="#808184"/>
<path d="M8.58951 0.0315418C5.65501 -0.297458 3.15851 1.99104 3.15851 4.85254C3.15851 5.97254 3.52301 6.96754 4.33601 8.07354L7.49101 12.634C7.61551 12.8135 7.82001 12.921 8.03901 12.921C8.25951 12.921 8.46551 12.812 8.58801 12.6325L10.6745 9.63604L11.8465 7.85204C12.674 6.80504 13.027 5.49304 12.8405 4.15804C12.5405 2.01104 10.7525 0.275542 8.58951 0.0315418ZM11.441 7.56004L10.26 9.35604L8.17601 12.349C8.13151 12.414 8.06501 12.4215 8.03901 12.4215C8.01301 12.4215 7.94651 12.4145 7.90201 12.35L4.74301 7.78354C3.99301 6.76304 3.65851 5.85854 3.65851 4.85254C3.65851 2.45254 5.61701 0.500042 8.02401 0.500042C8.19151 0.500042 8.36151 0.509542 8.53301 0.529042C10.473 0.747542 12.076 2.30304 12.345 4.22754C12.5125 5.42604 12.196 6.60304 11.441 7.56004Z" fill="#808184"/>
<path d="M7.99847 2.35254C6.61997 2.35254 5.49847 3.47404 5.49847 4.85254C5.49847 6.23104 6.61997 7.35254 7.99847 7.35254C9.37697 7.35254 10.4985 6.23104 10.4985 4.85254C10.4985 3.47404 9.37647 2.35254 7.99847 2.35254ZM7.99847 6.85254C6.89547 6.85254 5.99847 5.95554 5.99847 4.85254C5.99847 3.74954 6.89547 2.85254 7.99847 2.85254C9.10147 2.85254 9.99847 3.74954 9.99847 4.85254C9.99847 5.95554 9.10097 6.85254 7.99847 6.85254Z" fill="#808184"/>
</svg>
