<svg width="17" height="17" viewBox="0 0 17 17" fill="none" xmlns="http://www.w3.org/2000/svg">
<path fill-rule="evenodd" clip-rule="evenodd" d="M8.33333 1.83329C4.65143 1.83329 1.66667 4.81806 1.66667 8.49996C1.66667 12.1819 4.65143 15.1666 8.33333 15.1666C12.0153 15.1666 15 12.1819 15 8.49996C15 4.81806 12.0153 1.83329 8.33333 1.83329ZM0 8.49996C0 3.89758 3.73096 0.166626 8.33333 0.166626C12.9357 0.166626 16.6667 3.89758 16.6667 8.49996C16.6667 13.1023 12.9357 16.8333 8.33333 16.8333C3.73096 16.8333 0 13.1023 0 8.49996ZM8.19033 4.13109C8.65058 4.13109 9.02367 4.50418 9.02367 4.96443V9.10371L11.9628 10.221C12.393 10.3845 12.6092 10.8659 12.4456 11.296C12.2821 11.7263 11.8007 11.9425 11.3706 11.7789L7.89425 10.4575C7.57083 10.3345 7.357 10.0245 7.357 9.67846V4.96443C7.357 4.50418 7.73008 4.13109 8.19033 4.13109Z" fill="#857D7D"/>
</svg>
