<svg width="24" height="25" viewBox="0 0 24 25" fill="none" xmlns="http://www.w3.org/2000/svg">
<g clip-path="url(#clip0_94_1955)">
<path d="M16 16.5L12 12.5L8 16.5" stroke="#19191B" stroke-width="2" stroke-linecap="round" stroke-linejoin="round"/>
<path d="M12 12.5V21.5" stroke="#19191B" stroke-width="2" stroke-linecap="round" stroke-linejoin="round"/>
<path d="M20.39 18.89C21.3653 18.3583 22.1358 17.5169 22.5798 16.4986C23.0239 15.4804 23.1162 14.3432 22.8422 13.2667C22.5682 12.1901 21.9434 11.2355 21.0666 10.5534C20.1898 9.87138 19.1108 9.50073 18 9.5H16.74C16.4373 8.32924 15.8731 7.24233 15.0899 6.32099C14.3067 5.39965 13.3248 4.66785 12.2181 4.18061C11.1113 3.69336 9.90851 3.46336 8.70008 3.50788C7.49164 3.55241 6.30903 3.8703 5.24114 4.43766C4.17325 5.00503 3.24787 5.8071 2.53458 6.78358C1.82129 7.76006 1.33865 8.88554 1.12294 10.0754C0.90723 11.2653 0.964065 12.4885 1.28917 13.6533C1.61428 14.818 2.1992 15.8939 2.99996 16.8" stroke="#19191B" stroke-width="2" stroke-linecap="round" stroke-linejoin="round"/>
<path d="M16 16.5L12 12.5L8 16.5" stroke="#19191B" stroke-width="2" stroke-linecap="round" stroke-linejoin="round"/>
</g>
<defs>
<clipPath id="clip0_94_1955">
<rect width="24" height="24" fill="white" transform="translate(0 0.5)"/>
</clipPath>
</defs>
</svg>
